<svg xmlns="http://www.w3.org/2000/svg" width="20" height="20" viewBox="0 0 20 20"><path fill="#FFA300" d="M13.497 2.542c.035.143.183.26.329.26h2.841a.932.932 0 0 1 .258 1.829l-.487 13.404A2.049 2.049 0 0 1 14.398 20H5.602c-1.093 0-2-.877-2.039-1.966L3.075 4.63a.933.933 0 0 1 .258-1.829h2.841a.359.359 0 0 0 .328-.26l.199-.798C6.95.756 7.916 0 8.933 0h2.135c1.017 0 1.981.756 2.229 1.744l.2.798zM9.333 7.068v9.064a.666.666 0 1 0 1.335 0V7.068a.668.668 0 1 0-1.335 0zm-3.066.019l.267 9.065a.666.666 0 1 0 1.333-.04L7.6 7.047a.667.667 0 0 0-1.333.04zm6.133-.04l-.268 9.067a.667.667 0 1 0 1.333.039l.267-9.064a.666.666 0 0 0-1.332-.042zM8.496 2.802h3.009c.072 0 .118-.058.103-.129l-.121-.475c-.037-.158-.258-.33-.418-.33H8.933c-.16 0-.379.172-.419.33l-.119.474c-.019.073.028.13.101.13z"/></svg>