<svg xmlns="http://www.w3.org/2000/svg" width="20" height="20" viewBox="0 0 20 20"><path d="M16.354 2.93l-4.415.327v5.558l4.415-.327zM7.036 8.488l4.413.327V3.257L7.036 2.93zm4.903-5.885l4.415-.327L18.316.151 13.9.478zm-.654 0L9.325.478 4.911.151l1.961 2.125zM.465 12.375h2.654a.31.31 0 0 1 .309.309v6.496a.311.311 0 0 1-.309.309H.465a.31.31 0 0 1-.307-.309v-6.496c0-.17.138-.309.307-.309zm3.27.473c8.734-3.361 7.88.319 7.792.639a.307.307 0 0 1-.162.212L7.542 15.61c3.465.943 6.918-.479 9.188-1.418 1.235-.508 2.143-.885 2.658-.692.526.196.614.78.157 2.022a.327.327 0 0 1-.106.153l-.189-.241.186.241c-5.721 4.39-8.305 4.017-13.838 3.22-.598-.084-1.225-.177-1.871-.262v-5.781l.008-.004z" fill="#FFA300"/></svg>