<svg xmlns="http://www.w3.org/2000/svg" width="20" height="20" viewBox="0 0 20 20"><g fill="#FFA300"><circle cx="5.768" cy="9.644" r="1.492"/><path d="M3.429 13.954h4.678v-.083a2.342 2.342 0 0 0-2.339-2.338 2.341 2.341 0 0 0-2.339 2.338v.083z"/></g><path fill="#FFA300" d="M2.169 4.877c-.956 0-1.74.783-1.74 1.74v8.697c0 .957.784 1.74 1.74 1.74h16.09c.957 0 1.74-.783 1.74-1.74V6.617c0-.957-.783-1.74-1.74-1.74H2.169zm0 .87h16.09c.49 0 .87.38.87.87v8.697c0 .49-.38.871-.87.871H2.169a.859.859 0 0 1-.87-.871V6.617a.86.86 0 0 1 .87-.87zm8.698 2.392a.435.435 0 0 0 0 .87h6.523a.436.436 0 0 0 0-.87h-6.523zm0 2.39a.436.436 0 0 0 0 .872h6.523a.436.436 0 0 0 0-.872h-6.523zm0 2.394a.435.435 0 1 0 0 .871h6.523a.435.435 0 1 0 0-.871h-6.523z"/></svg>