<svg width="16" height="20" viewBox="0 0 16 20" xmlns="http://www.w3.org/2000/svg"><title>Shape</title><path d="M14.271 2.111L11.466.339a1.777 1.777 0 0 0-2.452.554L1.299 13.106a1.89 1.89 0 0 0-.272.839l-.319 5.149c-.03.298.13.578.391.762a.831.831 0 0 0 .629.102c.07-.017.163-.036.226-.075l4.513-2.499c.258-.155.479-.352.641-.608l7.715-12.214a1.77 1.77 0 0 0 .232-1.34 1.765 1.765 0 0 0-.784-1.111zM2.624 14.995l2.21 1.395-2.375 1.313.165-2.708zM13.412 3.689l-1.218 1.928-3.003-1.898 1.216-1.926c.019-.029.065-.039.087-.044a.165.165 0 0 1 .1.001l2.805 1.772c.028.018.038.064.043.086.007.025-.012.054-.03.081z" fill="#333" fill-rule="nonzero"/></svg>