<svg xmlns="http://www.w3.org/2000/svg" width="20" height="20" viewBox="0 0 20 20"><path fill="#FFA300" d="M13 1H7c-1.94 0-3.68.967-4.95 2.237S0 6.341 0 8.281c0 3.061 1.95 5.697 4.68 6.646l-.93 4.656L9.55 15H13c3.87 0 7-3.13 7-7s-3.13-7-7-7zm-3 12.755c-.59 0-1.06-.479-1.06-1.069a1.061 1.061 0 0 1 2.121 0c0 .589-.471 1.069-1.061 1.069zm1-3.75V10H9v-.105c0-2.66 2.46-2.42 2.42-4.08 0-.93-.52-1.598-1.34-1.598-1.11 0-1.6.783-1.6 1.783H6.22c.04-2 1.47-3.583 3.73-3.583 2.89 0 3.84 1.904 3.84 3.074 0 2.94-2.79 2.654-2.79 4.514z"/></svg>