<svg xmlns="http://www.w3.org/2000/svg" width="20" height="20" viewBox="0 0 20 20"><path d="M3.214 10.979v7.927c.005.306.202.49.358.583.171.094.348.138.544.138H7.73a.473.473 0 0 0 .471-.471v-3.814h3.598v3.814a.48.48 0 0 0 .138.333.48.48 0 0 0 .339.138h3.607c.197 0 .379-.044.545-.138.156-.093.354-.277.358-.583v-7.927l-6.785-6.173-6.787 6.173zm16.208-2.186L10.857.998a1.277 1.277 0 0 0-1.715 0L.578 8.793c-.52.47-.554 1.27-.079 1.783v.006c.25.27.593.406.937.406.309 0 .618-.107.862-.328L10 3.645l7.707 7.015a1.271 1.271 0 0 0 1.793-.078 1.26 1.26 0 0 0-.078-1.789zM8.182 1.014l-5.783 4.99v-4.99z" fill="#FFA300"/></svg>