<svg width="90" height="83" viewBox="0 0 90 83" xmlns="http://www.w3.org/2000/svg"><title>Page 1</title><g fill="none" fill-rule="evenodd"><path d="M85 41.5C85 63.866 66.868 82 44.499 82 22.132 82 4 63.866 4 41.5S22.132 1 44.499 1C66.869 1 85 19.134 85 41.5z" stroke="#2B2B2B" stroke-width="1.5"/><path d="M71 41.5C71 63.866 59.582 82 45.499 82 31.416 82 20 63.866 20 41.5S31.416 1 45.499 1C59.582 1 71 19.134 71 41.5z" stroke="#2B2B2B" stroke-width="1.5"/><path d="M56 41.5C56 63.866 51.075 82 45.001 82 38.925 82 34 63.866 34 41.5S38.925 1 45.001 1C51.075 1 56 19.134 56 41.5zM9 62h71M4 42h81M9 22h70" stroke="#2B2B2B" stroke-width="1.5"/><path d="M24 41a5 5 0 1 1-10 0 5 5 0 0 1 10 0" fill="#F1EFEB"/><path d="M24 41a5 5 0 1 1-10 0 5 5 0 0 1 10 0z" stroke="#2B2B2B" stroke-width="1.5"/><path d="M84 62a5 5 0 1 1-10 0 5 5 0 0 1 10 0" fill="#F1EFEB"/><path d="M84 62a5 5 0 1 1-10 0 5 5 0 0 1 10 0z" stroke="#2B2B2B" stroke-width="1.5"/><path d="M58 21a5 5 0 1 1-10 0 5 5 0 0 1 10 0" fill="#F1EFEB"/><path d="M58 21a5 5 0 1 1-10 0 5 5 0 0 1 10 0z" stroke="#2B2B2B" stroke-width="1.5"/><path d="M11 53a5 5 0 1 1-10 0 5 5 0 0 1 10 0" fill="#F1EFEB"/><path d="M11 53a5 5 0 1 1-10 0 5 5 0 0 1 10 0z" stroke="#2B2B2B" stroke-width="1.5"/><path d="M61 51a5 5 0 1 1-10 0 5 5 0 0 1 10 0" fill="#F1EFEB"/><path d="M61 51a5 5 0 1 1-10 0 5 5 0 0 1 10 0z" stroke="#2B2B2B" stroke-width="1.5"/><path d="M15 21a5 5 0 1 1-10 0 5 5 0 0 1 10 0" fill="#F1EFEB"/><path d="M15 21a5 5 0 1 1-10 0 5 5 0 0 1 10 0z" stroke="#2B2B2B" stroke-width="1.5"/><path d="M40 62a5 5 0 1 1-10 0 5 5 0 0 1 10 0" fill="#F1EFEB"/><path d="M40 62a5 5 0 1 1-10 0 5 5 0 0 1 10 0z" stroke="#2B2B2B" stroke-width="1.5"/><path d="M89 31a5 5 0 1 1-10 0 5 5 0 0 1 10 0" fill="#F1EFEB"/><path d="M89 31a5 5 0 1 1-10 0 5 5 0 0 1 10 0z" stroke="#2B2B2B" stroke-width="1.5"/></g></svg>