<?xml version="1.0" encoding="UTF-8" standalone="no"?>
<svg width="18px" height="24px" viewBox="0 0 18 24" version="1.1" xmlns="http://www.w3.org/2000/svg" xmlns:xlink="http://www.w3.org/1999/xlink">
    <!-- Generator: Sketch 48.2 (47327) - http://www.bohemiancoding.com/sketch -->
    <title>login_button</title>
    <desc>Created with Sketch.</desc>
    <defs></defs>
    <g id="Page-1" stroke="none" stroke-width="1" fill="none" fill-rule="evenodd">
        <g id="login_button" transform="translate(1.000000, 0.000000)">
            <path d="M16.99,19.79 C17,19.77 17,19.74 17,19.71 M16.99,19.79 C17,19.77 17,19.74 17,19.71 L17.01,19.68 L17.01,19.731" id="Shape" fill="#2B2926" fill-rule="nonzero"></path>
            <path d="M17,19.58 L17,19.72 L17.01,19.731 L17,19.58 Z M16.63,20.86 L16.691,20.83 C16.701,20.809 16.711,20.78 16.731,20.76 L16.63,20.86 Z" id="Shape"></path>
            <path d="M16.99,19.79 L16.99,19.84 L17,19.79 L17,19.58 C17,19.65 17,19.72 16.99,19.79 Z" id="Shape" fill="#2B2926" fill-rule="nonzero"></path>
            <path d="M7.661,10.454 C7.674,10.441 7.674,10.428 7.674,10.415 C7.686,10.403 7.686,10.388 7.701,10.362 C7.701,10.348 7.714,10.335 7.714,10.322 C7.714,10.309 7.727,10.297 7.727,10.282 C7.73999777,10.2213553 7.73999777,10.1586447 7.727,10.098 C7.727,10.085 7.714,10.072 7.714,10.059 C7.714,10.045 7.701,10.031 7.701,10.019 C7.686,10.004 7.686,9.992 7.674,9.966 C7.674,9.953 7.661,9.94 7.661,9.94 C7.647,9.913 7.621,9.887 7.609,9.874 L5.126,7.391 C5.03948427,7.30273943 4.92109166,7.25300582 4.7975,7.25300582 C4.67390834,7.25300582 4.55551573,7.30273943 4.469,7.391 C4.38042774,7.47755178 4.33049495,7.59616036 4.33049495,7.72 C4.33049495,7.84383964 4.38042774,7.96244822 4.469,8.049 L6.163,9.743 L0.607,9.743 C0.354071928,9.74515487 0.149254527,9.94908369 0.146,10.202 C0.146,10.452 0.355,10.661 0.607,10.661 L6.15,10.661 L4.456,12.355 C4.36723054,12.4412407 4.31714221,12.5597362 4.31714221,12.6835 C4.31714221,12.8072638 4.36723054,12.9257593 4.456,13.012 C4.547,13.106 4.666,13.144 4.784,13.144 C4.90712942,13.1469865 5.02607963,13.0992618 5.113,13.012 L7.596,10.53 C7.633,10.507 7.646,10.481 7.661,10.454 Z" id="Shape" stroke="#2B2926" fill="#2B2926" fill-rule="nonzero"></path>
            <path d="M7.028,13.246 L7.028,19.777 L8.145,19.777 L8.145,20.6960044 L6.567,20.696 C6.44492822,20.6965369 6.32771553,20.6482129 6.24149089,20.5618004 C6.15526625,20.4753879 6.10719747,20.3580703 6.108,20.236 L6.10799011,13.246 L7.028,13.246 Z M16.37,0.32 L16.36,-1.77635684e-15 L6.58,-1.77635684e-15 C6.3,-1.77635684e-15 6,0.73 6,0.98 L6,7 L7,7 L7,1 L13.66,1 L9.34,2.73 C9.16,2.8 9,3.18 9,3.38 L9,22.64 C9,22.8 9.09,22.93 9.22,23.02 C9.3,23.081 9.41,23.1 9.5,23.1 C9.55,23.1 9.93,23.08 9.98,23.071 L16.47,20.911 C16.481,20.911 16.531,20.911 16.6,20.871 C16.611,20.861 16.621,20.861 16.63,20.861 L16.731,20.76 C16.741,20.75 16.755,20.74 16.765,20.72 L17,19.84 L17,19.79 L17,1.24 C17,0.75 16.44,0.33 16.37,0.32 Z M10.76,12.53 C10.37,12.53 10.04,12.21 10.04,11.81 C10.0645266,11.4301006 10.3798097,11.1345161 10.7605,11.1345161 C11.1411903,11.1345161 11.4564734,11.4301006 11.481,11.81 C11.4815345,12.0012927 11.4057118,12.1848901 11.270353,12.3200612 C11.1349943,12.4552322 10.9512918,12.5308 10.76,12.53 Z" id="Shape" fill="#2B2926" fill-rule="nonzero"></path>
            <path d="M16.99,19.84 C16.92,21.05 16.469,20.91 16.469,20.91 C16.48,20.91 16.53,20.91 16.599,20.87 C16.61,20.86 16.62,20.86 16.629,20.86 L16.73,20.759 C16.74,20.749 16.75,20.739 16.759,20.719 L16.99,19.84 Z" id="Shape" fill="#2B2926" fill-rule="nonzero"></path>
        </g>
    </g>
</svg>