<svg xmlns="http://www.w3.org/2000/svg" width="32" height="32" viewBox="0 0 32 32"><path fill="#2B2926" d="M22.99 25.79c.01-.02.01-.05.01-.08M22.99 25.79c.01-.02.01-.05.01-.08l.01-.03v.051"/><path fill="none" d="M23 25.58v.14l.01.011m-.38 1.129l.061-.03c.01-.021.02-.05.04-.07l-.101.1z"/><path fill="#2B2926" d="M22.99 25.79v.05l.01-.05v-.21c0 .07 0 .14-.01.21z"/><circle fill="#FFA300" cx="16.042" cy="16.167" r="15.958"/><path fill="#2B2926" stroke="#2B2926" stroke-miterlimit="10" d="M13.661 16.454c.013-.013.013-.026.013-.039.012-.012.012-.027.027-.053 0-.014.013-.027.013-.04 0-.013.013-.025.013-.04a.439.439 0 0 0 0-.184c0-.013-.013-.026-.013-.039 0-.014-.013-.028-.013-.04-.015-.015-.015-.027-.027-.053 0-.013-.013-.026-.013-.026-.014-.027-.04-.053-.052-.066l-2.483-2.483a.46.46 0 0 0-.657 0 .46.46 0 0 0 0 .658l1.694 1.694H6.607a.465.465 0 0 0-.461.459c0 .25.209.459.461.459h5.543l-1.694 1.694a.458.458 0 0 0 0 .657c.091.094.21.132.328.132a.449.449 0 0 0 .329-.132l2.483-2.482c.037-.023.05-.049.065-.076z"/><path fill="#2B2926" d="M13.028 19.246v6.531h1.117v.919h-1.578a.457.457 0 0 1-.459-.46v-6.99h.92zM22.37 6.32L22.36 6h-9.78c-.28 0-.58.73-.58.98V13h1V7h6.66l-4.32 1.73c-.18.07-.34.45-.34.65v19.26c0 .16.09.29.22.38.08.061.19.08.28.08.05 0 .43-.02.48-.029l6.49-2.16c.011 0 .061 0 .13-.04.011-.01.021-.01.03-.01l.101-.101c.01-.01.024-.02.034-.04l.235-.88v-.05V7.24c0-.49-.56-.91-.63-.92zm-5.61 12.21c-.39 0-.72-.32-.72-.72a.722.722 0 0 1 1.441 0 .718.718 0 0 1-.721.72z"/><path fill="#2B2926" d="M22.99 25.84c-.07 1.21-.521 1.07-.521 1.07.011 0 .061 0 .13-.04.011-.01.021-.01.03-.01l.101-.101c.01-.01.02-.02.029-.04l.231-.879z"/></svg>