<svg width="79" height="74" viewBox="0 0 79 74" xmlns="http://www.w3.org/2000/svg"><title>Page 1 Copy 3</title><g fill="none" fill-rule="evenodd"><path d="M17.96 56.878c0 1.146.744 2.087 1.963 2.087 1.164 0 1.95-.9 1.95-2.087 0-1.187-.786-2.086-1.95-2.086-1.219 0-1.964.94-1.964 2.086zm5.24 0v3.26h-1.408v-.79c-.447.585-1.125.954-2.046.954-1.814 0-3.236-1.432-3.236-3.424 0-1.99 1.422-3.423 3.236-3.423.921 0 1.599.368 2.046.955v-.792H23.2v3.26zm47.56 0c0 1.146.744 2.087 1.963 2.087 1.165 0 1.95-.9 1.95-2.087 0-1.187-.785-2.086-1.95-2.086-1.219 0-1.964.94-1.964 2.086zm5.24 0v3.26h-1.409v-.79c-.446.585-1.123.954-2.044.954-1.815 0-3.237-1.432-3.237-3.424 0-1.99 1.422-3.423 3.237-3.423.921 0 1.598.368 2.044.955V51H76v5.878zm-35.331-2.155c-1.002 0-1.57.64-1.72 1.582h3.359c-.15-1.01-.732-1.582-1.639-1.582zm.027-1.268c1.815 0 3.06 1.391 3.074 3.423 0 .191-.013.368-.027.546h-4.807c.203 1.173 1.029 1.596 1.936 1.596.65 0 1.341-.246 1.883-.682l.69 1.05c-.785.668-1.679.914-2.654.914-1.936 0-3.318-1.35-3.318-3.424 0-2.032 1.328-3.423 3.223-3.423zm16.995 3.423c0 1.146.745 2.087 1.964 2.087 1.164 0 1.95-.9 1.95-2.087 0-1.187-.786-2.086-1.95-2.086-1.219 0-1.964.94-1.964 2.086zm5.241 0v3.26h-1.408v-.79c-.447.585-1.124.954-2.045.954-1.815 0-3.237-1.432-3.237-3.424 0-1.99 1.422-3.423 3.237-3.423.92 0 1.598.368 2.045.955v-.792h1.408v3.26zm-13.19 0c0 1.978 1.368 3.424 3.454 3.424.975 0 1.624-.218 2.328-.778l-.676-1.145c-.528.382-1.084.586-1.693.586-1.124-.013-1.95-.832-1.95-2.087 0-1.255.826-2.073 1.95-2.086.61 0 1.165.204 1.693.586l.676-1.146c-.704-.559-1.353-.777-2.328-.777-2.086 0-3.454 1.446-3.454 3.423zm18.147-3.423c-.813 0-1.341.382-1.707.955v-.792h-1.395v6.52h1.409v-3.656c0-1.077.46-1.677 1.381-1.677.285 0 .582.041.88.164l.434-1.337a2.99 2.99 0 0 0-1.002-.177zm-37.728.682c-.677-.45-1.612-.682-2.641-.682-1.639 0-2.695.791-2.695 2.086 0 1.064.785 1.719 2.234 1.924l.664.095c.772.11 1.138.314 1.138.682 0 .505-.515.791-1.476.791-.976 0-1.68-.313-2.154-.682l-.663 1.105c.771.573 1.747.846 2.803.846 1.869 0 2.952-.887 2.952-2.128 0-1.146-.853-1.746-2.261-1.95l-.664-.096c-.61-.082-1.097-.205-1.097-.64 0-.478.46-.765 1.233-.765.826 0 1.625.314 2.018.559l.609-1.145zm18.16-.682c-.813 0-1.341.382-1.707.955v-.792h-1.395v6.52h1.409v-3.656c0-1.077.46-1.677 1.381-1.677.284 0 .582.041.88.164l.434-1.337a2.99 2.99 0 0 0-1.002-.177zm-12.012.163h-2.302V51.64h-1.422v1.978H31.27v1.296h1.314v2.974c0 1.514.582 2.414 2.248 2.414.609 0 1.313-.19 1.76-.505l-.406-1.214c-.42.246-.88.369-1.246.369-.704 0-.934-.437-.934-1.092v-2.946h2.302v-1.296zm21.661 10.53c-.569 0-.99.437-.99 1.011 0 .56.421.997.99.997a.993.993 0 0 0 1.004-.997.997.997 0 0 0-1.004-1.01zm-.704 9.674h1.423v-6.528h-1.423v6.528zM38.06 72.648c1.165 0 1.951-.9 1.951-2.088 0-1.188-.786-2.089-1.951-2.089-1.22 0-1.965.942-1.965 2.089 0 1.146.745 2.088 1.965 2.088zm3.28-7.972v9.146h-1.41v-.791c-.447.586-1.125.955-2.046.955-1.817 0-3.24-1.433-3.24-3.426s1.423-3.427 3.24-3.427c.921 0 1.6.369 2.046.956v-3.413h1.41zm14.174 2.618H53.23v-1.962h-1.41v1.962h-1.304v1.285h1.303v2.95c0 1.5.578 2.393 2.23 2.393.604 0 1.302-.19 1.746-.5l-.403-1.204c-.416.243-.873.365-1.236.365-.698 0-.926-.433-.926-1.082v-2.922h2.283v-1.285zm18.77 2.43c0-1.524-1.088-2.592-2.628-2.592-.662 0-1.466.197-1.986.966v-.796h-1.406v6.52h1.418v-3.614c0-1.116.764-1.722 1.677-1.722.946 0 1.506.613 1.506 1.709v3.627h1.419v-4.097zm-12.838.846c0 1.232.871 2.09 2.027 2.09 1.155 0 2.034-.858 2.034-2.09 0-1.232-.88-2.09-2.034-2.09-1.156 0-2.027.858-2.027 2.09zm5.514 0c0 1.953-1.487 3.43-3.487 3.43s-3.48-1.477-3.48-3.43c0-1.954 1.48-3.43 3.48-3.43s3.487 1.476 3.487 3.43zm-22.846-.008c0 1.144.737 2.09 1.953 2.09 1.167 0 1.952-.899 1.952-2.09 0-1.19-.785-2.088-1.952-2.088-1.216 0-1.953.945-1.953 2.088zm5.23-3.26v6.52H47.93v-.782c-.445.579-1.115.952-2.033.952-1.811 0-3.237-1.435-3.237-3.43 0-1.993 1.426-3.43 3.237-3.43.918 0 1.588.382 2.033.96v-.79h1.412zM33.4 69.726c0-1.525-1.087-2.593-2.627-2.593-.662 0-1.466.197-1.986.966v-.796H27.38v6.52h1.42v-3.614c0-1.116.764-1.722 1.677-1.722.946 0 1.506.613 1.506 1.709v3.627H33.4v-4.097zM25.645 67.3h-1.419v3.628c0 1.259-.696 1.722-1.58 1.722-.886 0-1.582-.463-1.582-1.722V67.3h-1.419v3.757c0 2.076 1.48 2.933 3 2.933 1.514 0 3-.857 3-2.933V67.3zM12.98 70.57c0 1.233.871 2.09 2.027 2.09 1.155 0 2.033-.857 2.033-2.09 0-1.23-.878-2.088-2.033-2.088-1.156 0-2.027.857-2.027 2.089zm5.513 0c0 1.954-1.486 3.431-3.486 3.431s-3.48-1.477-3.48-3.43c0-1.954 1.48-3.43 3.48-3.43s3.486 1.476 3.486 3.43zm-7.453-1.973H8.825v5.227H7.406v-5.227H6.11v-1.293h1.297V66.2c0-1.307.656-2.348 2.17-2.348a3.39 3.39 0 0 1 1.803.49l-.5 1.197c-.33-.19-.784-.347-1.21-.347-.547 0-.844.361-.844 1.008v1.102h2.216v1.293zm4.223-8.458v-4.092c0-1.54-.974-2.578-2.545-2.591-.827-.014-1.68.245-2.275 1.16-.447-.724-1.151-1.16-2.14-1.16-.69 0-1.368.204-1.896.968v-.805H5v6.52h1.421v-3.615c0-1.132.623-1.731 1.585-1.731.935 0 1.409.613 1.409 1.718v3.628h1.421v-3.615c0-1.132.65-1.731 1.585-1.731.961 0 1.422.613 1.422 1.718v3.628h1.421z" fill="#FFF"/><path fill="#FF5F00" d="M29 43h21V5H29z"/><path d="M29.793 24.5c0-7.816 3.6-14.776 9.207-19.262C34.9 1.958 29.726 0 24.103 0 10.791 0 0 10.97 0 24.5S10.791 49 24.103 49C29.726 49 34.9 47.043 39 43.762c-5.606-4.486-9.207-11.447-9.207-19.262" fill="#EB001B"/><path d="M79 24.5C79 38.03 68.208 49 54.897 49 49.274 49 44.1 47.043 40 43.762c5.606-4.486 9.207-11.447 9.207-19.262 0-7.816-3.6-14.776-9.207-19.262C44.1 1.958 49.274 0 54.897 0 68.208 0 79 10.97 79 24.5" fill="#F79E1B"/><path d="M78 39v-1h-.24l-.277.688-.277-.688h-.24v1h.17v-.754l.259.65h.176l.26-.652V39H78zm-1.524 0v-.83h.309v-.169H76v.17h.308V39h.168z" fill="#FFF"/></g></svg>