<svg xmlns="http://www.w3.org/2000/svg" width="20" height="20" viewBox="0 0 20 20"><path fill="#FFA300" d="M10.66 13.031c0-.34.189-.615.421-.615h4.427c.235 0 .422.275.422.615 0 .338-.188.613-.422.613h-4.427c-.231.001-.421-.275-.421-.613zm0 2.857c0-.339.189-.613.421-.613h4.427c.235 0 .422.274.422.613 0 .337-.188.615-.422.615h-4.427c-.231 0-.421-.278-.421-.615zm0-8.448c0-.344.189-.623.421-.623h4.427c.235 0 .422.279.422.623 0 .345-.188.623-.422.623h-4.427c-.231 0-.421-.278-.421-.623zm0 2.898c0-.344.189-.623.421-.623h4.427c.235 0 .422.279.422.623s-.188.622-.422.622h-4.427c-.231 0-.421-.278-.421-.622zM8.201 7.84a.25.25 0 0 0-.352.045l-.706.909-.301-.302a.253.253 0 0 0-.356.013.252.252 0 0 0 0 .342l.502.503a.25.25 0 0 0 .178.073h.016a.268.268 0 0 0 .185-.096l.878-1.133a.252.252 0 0 0-.044-.354c0 .001 0 0 0 0z"/><path fill="#FFA300" stroke="#FFA300" stroke-width=".75" stroke-miterlimit="10" d="M15.688 2.417h-1.885A2.3 2.3 0 0 0 11.551.579H9.253a2.298 2.298 0 0 0-2.251 1.838H5.117A2.297 2.297 0 0 0 2.82 4.715v12.406a2.297 2.297 0 0 0 2.297 2.298h10.571a2.296 2.296 0 0 0 2.296-2.298V4.716a2.298 2.298 0 0 0-2.296-2.299zm-7.813.46c0-.761.617-1.377 1.378-1.377h2.297c.762 0 1.377.617 1.377 1.377v.919H7.874l.001-.919zm9.189 14.245c0 .761-.615 1.378-1.377 1.378H5.117a1.377 1.377 0 0 1-1.378-1.378V4.716c0-.762.616-1.378 1.378-1.378h1.838v.919c0 .254.206.459.459.459h5.974a.46.46 0 0 0 .459-.459v-.92h1.84c.762 0 1.376.616 1.376 1.378l.001 12.407z"/><path fill="none" stroke="#FFA300" stroke-miterlimit="10" d="M5.262 6.59h4.194v4.195H5.262z"/><path fill="#FFA300" d="M8.201 14.133a.25.25 0 0 0-.352.045l-.705.908-.301-.301a.251.251 0 0 0-.355.354l.502.503a.25.25 0 0 0 .177.072h.016a.26.26 0 0 0 .184-.097l.878-1.131a.25.25 0 0 0-.044-.353z"/><path fill="none" stroke="#FFA300" stroke-miterlimit="10" d="M5.262 12.883h4.194v4.193H5.262z"/></svg>