<svg width="309" height="305" viewBox="0 0 309 305" xmlns="http://www.w3.org/2000/svg"><title>ORON Logo - 512x512</title><g fill="none"><ellipse fill="#FFA300" cx="116.9" cy="189.2" rx="32.6" ry="33.5"/><path d="M170.5 227.6c-20.2 28.5-46.4 28.1-53.5 28.4-33.8 1.3-52.6-18.4-59.2-29.9-21-39.2-1.4-66.6 3.8-74.3 4.7-7.4 10.5-12.9 16.6-17l-16-44.7c-14.1 5.9-27.9 17.5-40.3 33.3-36.4 52.4-16.2 106-9 120.2h-.1c12.7 23 38.4 58.7 102.9 61.3 68.5-.1 97-56.7 99.4-61.7l-44.6-15.6z" fill="#2A2926"/><path d="M197.8 106.6C160.7 71 117.4 74.4 95.1 79.2l14.3 44.4c31.4-4.1 48.6 12.9 53.7 17.4 21.1 18.7 22.5 41.1 20.6 55.5l43.7 11.8c5.1-27.1 5.8-67.7-29.6-101.7z" fill="#FFA300"/><path d="M250.4 48.9C186.7-12.1 99.3-.7 66.7 6.2l15.7 43.2c73.5-17 122.8 16.6 137.4 32 48.3 42.7 44.1 108.1 39.6 135.5l44.7 12c10.5-41.6 7.9-123.2-53.7-180z" fill="#FFA300"/></g></svg>