<svg width="22" height="21" viewBox="0 0 22 21" xmlns="http://www.w3.org/2000/svg"><title>Shape</title><path d="M7.785.446a2.084 2.084 0 0 0-2.086 2.086v1.216h10.89V2.532h.004a2.087 2.087 0 0 0-2.09-2.086H7.785zM2.608 4.547A2.264 2.264 0 0 0 .346 6.813v7.262c0 1.251 1.01 2.26 2.262 2.26H3.7v-3.788c0-.653.542-1.194 1.194-1.194h12.497c.659 0 1.192.543 1.192 1.194v3.788h1.092a2.258 2.258 0 0 0 2.266-2.26V6.813a2.262 2.262 0 0 0-2.266-2.266H2.608zm13.341 2.245h1.28c.286 0 .521.233.521.523V8.59a.52.52 0 0 1-.521.522h-1.28a.52.52 0 0 1-.52-.522V7.315c0-.288.232-.522.52-.523zM4.894 12.153a.395.395 0 0 0-.397.396v7.582a.4.4 0 0 0 .397.402h12.5c.219 0 .4-.181.4-.402v-7.582a.398.398 0 0 0-.4-.396h-12.5zm.401.793h11.702v6.785H5.295v-6.785zm1.543 1.327a.4.4 0 0 0-.401.396c0 .221.181.397.401.397h8.569a.395.395 0 0 0 .396-.397.394.394 0 0 0-.396-.396H6.838zm0 1.705c-.22.002-.4.18-.401.401 0 .22.181.396.401.396h8.569a.394.394 0 0 0 .396-.396.398.398 0 0 0-.396-.401H6.838zm0 1.712c-.221 0-.4.179-.401.4a.4.4 0 0 0 .401.396h8.569a.395.395 0 0 0 .396-.396c0-.222-.176-.4-.396-.4H6.838z" fill="#FFA300" fill-rule="nonzero"/></svg>