<svg xmlns="http://www.w3.org/2000/svg" width="20" height="20" viewBox="0 0 20 20"><g fill="#FFA300"><path d="M16.323 14.192l-3.535 1.597a.107.107 0 0 1-.05.01.123.123 0 0 1-.1-.056l-2.379-3.841V20l6.063-3.063.001-2.745z"/><path d="M10.237 10.786l2.513 4.055 3.674-1.659h.002l2.746-1.241L16.77 8.08zm-.211-6.44l6.927 3.148 3.11-3.401-6.21-2.031zM3.775 7.427l5.927 2.695 6.019-2.496-5.974-2.714zm5.341 4.475l-2.467 3.843a.117.117 0 0 1-.151.041l-3.474-1.763V16.8l6.09 3.183.002-8.081zM2.556 7.25l6.965-2.933-2.922-2.862-6.662 2.22z"/><path d="M6.506 14.751l2.546-3.965-6.289-2.86-2.394 3.709z"/></g></svg>