<svg xmlns="http://www.w3.org/2000/svg" width="20" height="20" viewBox="0 0 20 20"><g fill="#FFA300"><circle cx="7.395" cy="17.992" r="1.64"/><circle cx="14.55" cy="17.992" r="1.64"/><path d="M18.727 7.365H8.606s-.599.135-.599.793.598.85.598.85h9.073l-.509 1.725H8.251s-.558.127-.558.738c0 .614.558.793.558.793h8.467l-.478 1.613H7.032l-.611-4.869-.199-1.643s-.178-1.517-.279-2.143c-.1-.63-1.673-1.417-5.055-3.011-.795-.333-1.46 1.122 0 1.883L3.555 5.34s.62.36.673.843c.054.486 1.136 8.508 1.136 8.508s.044 1.115 1.058 1.115H16.6c.852 0 1.017-.89 1.017-.89l2.017-5.99c-.002.002.596-1.561-.907-1.561z"/><path d="M13.607 8H9.493l.583-1.797c.212-.439.742-.922 1.183-.708l1.855 1.349c.286.14.465.156.493 1.156zM18.047 8h-4.273l-.101-.915c-.146-.506.146-1.317.647-1.462l2.127-.755c.503-.144 1.027.646 1.174 1.15L18.047 8z"/></g></svg>