<svg width="23" height="22" viewBox="0 0 23 22" xmlns="http://www.w3.org/2000/svg"><title>register_button</title><g fill="#FFA300" fill-rule="nonzero"><path d="M10.161.807a5.565 5.565 0 0 0-5.559 5.559 5.567 5.567 0 0 0 5.559 5.562 5.569 5.569 0 0 0 5.562-5.562c.003-3.068-2.494-5.559-5.562-5.559zM13.888 22H.542c.023-5 4.372-8.635 9.168-8.635.521 0 1.052.083 1.574.17a5.474 5.474 0 0 0 .515 7.203c.608.61 1.328 1.262 2.089 1.262z"/><path d="M20.645 12.483a5.586 5.586 0 0 0-7.895 0 5.584 5.584 0 0 0 7.895 7.896 5.586 5.586 0 0 0 0-7.896zm-.672 4.733c-.778.003-1.556 0-2.333.003-.152 0-.154 0-.154.151 0 .766 0 1.533.002 2.3a.86.86 0 0 1-.232.61c-.234.208-.506.288-.811.177a.741.741 0 0 1-.513-.635c-.008-.066-.008-.134-.008-.199-.004-.747-.004-1.496-.004-2.243 0-.161 0-.161-.163-.161-.75 0-1.498-.003-2.245 0-.202 0-.395-.035-.564-.16a.779.779 0 0 1-.282-.835c.082-.304.354-.547.666-.561.388-.018.773-.009 1.161-.01.427-.002.853 0 1.284 0 .144 0 .144 0 .144-.147.004-.774 0-1.549.004-2.322 0-.406.23-.708.599-.795a.77.77 0 0 1 .947.62c.014.076.016.155.016.231.002.749 0 1.494 0 2.243 0 .166 0 .17.161.17.784 0 1.562-.008 2.345.001.6.005.972.633.688 1.148a.767.767 0 0 1-.708.414z"/></g></svg>