<svg xmlns="http://www.w3.org/2000/svg" width="20" height="20" viewBox="0 0 20 20"><circle fill="none" stroke="#FFA300" stroke-miterlimit="10" cx="14.723" cy="8.326" r="4.758"/><path fill="#FFA300" d="M15.943 7.814a7.156 7.156 0 0 0-.756-.345l-.102-.041a1.799 1.799 0 0 1-.438-.245.317.317 0 0 1-.135-.289.332.332 0 0 1 .211-.251.71.71 0 0 1 .248-.049c.352-.021.699.048 1.014.201.324.151.391-.08.424-.18.043-.133.08-.267.119-.401l.045-.159a.3.3 0 0 0-.186-.382 2.851 2.851 0 0 0-.693-.207c-.219-.035-.219-.035-.219-.252 0-.454-.033-.534-.484-.534h-.24c-.258.007-.334.084-.342.345v.277c0 .193 0 .193-.193.263-.701.255-1.078.734-1.121 1.426-.035.591.232 1.051.824 1.403.217.123.445.228.678.316.102.041.201.08.305.124.115.048.225.112.324.19a.38.38 0 0 1-.089.672 1.06 1.06 0 0 1-.564.074 2.687 2.687 0 0 1-.908-.272.44.44 0 0 0-.195-.063c-.15 0-.207.16-.232.247a8.796 8.796 0 0 0-.145.497c-.076.272-.027.374.227.497.279.127.574.214.881.254a.7.7 0 0 1 .143.03c.01.05.014.101.012.151v.324a.302.302 0 0 0 .283.319l.02.001h.485a.286.286 0 0 0 .303-.303V10.998c0-.101.023-.134.127-.162.352-.093.662-.292.891-.572.301-.36.424-.837.336-1.297a1.714 1.714 0 0 0-.858-1.153z"/><circle fill="none" stroke="#FFA300" stroke-miterlimit="10" cx="6.172" cy="4.12" r="3.315"/><path fill="#FFA300" d="M7.021 3.764a4.9 4.9 0 0 0-.526-.24l-.07-.029a1.249 1.249 0 0 1-.304-.171.227.227 0 0 1-.096-.2.233.233 0 0 1 .149-.175.49.49 0 0 1 .173-.035c.243-.015.486.034.706.14.226.105.271-.057.294-.126a5.6 5.6 0 0 0 .083-.28l.033-.11a.21.21 0 0 0-.128-.266 1.927 1.927 0 0 0-.486-.144c-.151-.025-.151-.025-.151-.177 0-.315-.024-.372-.338-.372h-.167c-.18.006-.233.06-.239.241v.193c0 .134 0 .134-.135.183-.488.178-.751.512-.781.994-.025.412.163.733.574.978.152.085.31.159.473.22l.211.085c.081.034.157.079.227.133a.265.265 0 0 1-.063.469c-.125.052-.262.07-.395.052a1.843 1.843 0 0 1-.632-.19.288.288 0 0 0-.137-.044c-.105 0-.144.112-.163.172-.035.114-.068.23-.1.346-.052.19-.02.26.158.346.195.089.402.148.614.177a.544.544 0 0 1 .099.021.46.46 0 0 1 .008.105v.227a.211.211 0 0 0 .198.223h.351a.198.198 0 0 0 .21-.184V5.985c0-.07.016-.094.089-.114.243-.063.46-.204.62-.398.209-.251.295-.583.234-.904a1.17 1.17 0 0 0-.593-.805zM.761 13.166h2.39c.153 0 .277.125.277.277v5.851a.278.278 0 0 1-.277.276H.761a.278.278 0 0 1-.277-.276v-5.851c0-.152.125-.277.277-.277zm2.944.427c7.866-3.028 7.096.286 7.016.575a.274.274 0 0 1-.145.189l-3.442 1.721c3.12.85 6.229-.432 8.274-1.276 1.109-.458 1.93-.798 2.393-.624.475.176.555.703.143 1.822a.278.278 0 0 1-.098.138l-.17-.219.166.219c-5.148 3.953-7.477 3.616-12.461 2.899-.537-.076-1.102-.159-1.683-.235v-5.205l.007-.004z"/></svg>