<?xml version="1.0" encoding="utf-8"?>
<!-- Generator: Adobe Illustrator 16.0.0, SVG Export Plug-In . SVG Version: 6.00 Build 0)  -->
<!DOCTYPE svg PUBLIC "-//W3C//DTD SVG 1.1//EN" "http://www.w3.org/Graphics/SVG/1.1/DTD/svg11.dtd">
<svg version="1.1" id="Layer_1" xmlns="http://www.w3.org/2000/svg" xmlns:xlink="http://www.w3.org/1999/xlink" x="0px" y="0px"
	 width="20px" height="20px" viewBox="0 0 20 20" enable-background="new 0 0 20 20" xml:space="preserve">
<g>
	<circle fill="#FFA300" cx="5.768" cy="9.644" r="1.492"/>
	<path fill="#FFA300" d="M3.429,13.954h4.678v-0.083c0-1.289-1.05-2.338-2.339-2.338c-1.29,0-2.339,1.049-2.339,2.338V13.954z"/>
</g>
<path fill="#FFA300" d="M2.169,4.877c-0.956,0-1.74,0.783-1.74,1.74v8.697c0,0.957,0.784,1.74,1.74,1.74h16.09
	c0.957,0,1.74-0.783,1.74-1.74V6.617c0-0.957-0.783-1.74-1.74-1.74H2.169z M2.169,5.747h16.09c0.49,0,0.87,0.38,0.87,0.87v8.697
	c0,0.49-0.38,0.871-0.87,0.871H2.169c-0.49,0-0.87-0.381-0.87-0.871V6.617C1.3,6.127,1.68,5.747,2.169,5.747z M10.867,8.139
	c-0.24,0-0.435,0.195-0.435,0.435c0,0.24,0.195,0.435,0.435,0.435h6.523c0.239,0,0.435-0.195,0.435-0.435
	c0-0.24-0.194-0.435-0.435-0.435H10.867z M10.867,10.529c-0.24,0-0.435,0.195-0.435,0.436s0.195,0.436,0.435,0.436h6.523
	c0.239,0,0.435-0.195,0.435-0.436s-0.194-0.436-0.435-0.436H10.867z M10.867,12.923c-0.24,0-0.435,0.194-0.435,0.435
	c0,0.242,0.195,0.436,0.435,0.436h6.523c0.239,0,0.435-0.193,0.435-0.436c0-0.24-0.194-0.435-0.435-0.435H10.867z"/>
</svg>
