<svg width="20" height="20" viewBox="0 0 20 20" xmlns="http://www.w3.org/2000/svg"><title>Shape</title><path d="M3.868 16.182a1.5 1.5 0 0 1-2.001-.564l-.755-1.311a1.498 1.498 0 0 1 .516-2.017l.475-.291c.299-.184.541-.616.541-.966l-.002-2.065c0-.353-.241-.784-.54-.967l-.476-.293a1.498 1.498 0 0 1-.515-2.016l.756-1.309a1.5 1.5 0 0 1 2.005-.563l.489.268c.308.167.803.16 1.108-.016l1.787-1.03c.304-.175.557-.602.566-.95l.015-.559A1.5 1.5 0 0 1 9.327.078l1.512-.002c.801 0 1.469.647 1.488 1.45l.017.562c.009.35.262.777.566.952l1.788 1.032c.303.176.799.184 1.107.016l.492-.269a1.5 1.5 0 0 1 2.002.565l.755 1.31c.4.693.172 1.595-.518 2.017l-.474.293c-.3.184-.542.615-.542.965l.002 2.064c.001.351.24.783.541.966l.476.291a1.5 1.5 0 0 1 .515 2.017l-.755 1.311a1.498 1.498 0 0 1-2.005.563l-.489-.268c-.309-.167-.805-.16-1.106.015L12.91 16.96c-.305.174-.558.6-.566.95l-.017.558a1.501 1.501 0 0 1-1.488 1.456l-1.511.001a1.496 1.496 0 0 1-1.49-1.451l-.016-.562c-.009-.351-.262-.776-.566-.952L5.47 15.928c-.304-.175-.8-.182-1.108-.015l-.494.269zm4.036-2.41a4.357 4.357 0 1 0 4.358-7.546 4.357 4.357 0 0 0-4.358 7.546z" fill="#2B2926" fill-rule="nonzero"/></svg>