<svg xmlns="http://www.w3.org/2000/svg" width="20" height="20" viewBox="0 0 20 20"><g fill="#FFA300"><path d="M3.131 7.125l.258 2.386c.064.387.064.838.193 1.097.516 1.033 1.548.387 2.257.129l1.226-.516c.129.193.258.322.581.322h1.548v7.675c0 .322.258.58.452.645.258.064.709 0 1.032 0a1.113 1.113 0 0 0 2.193 0h2.516c.322 1.42 2.129.969 2.192 0 .45 0 1.354.13 1.354-.645 0-.517-.388-.71-.904-.71h-7.48V10.09c0-1.161-.838-.968-1.677-.968.065-.129.065-.064.065-.387 0-.516-.517-.967-1.032-.967-.388 0-2.258.903-2.516.903L5.195 7.06c-.065-.452-.451-.903-.903-.903h-.258c-.451 0-.903.516-.903.968z"/><path d="M4.615 14.93l.322.258c.193.129.258.129.451.258l-.258 2.643c-.064.451-.064.902.129 1.226.58.773 1.612.646 2.064-.063.193-.323.193-1.032.258-1.419 0-.968.193-2.258.193-3.098 0-.45-.258-.772-.58-.967-.452-.322-.968-.58-1.419-.902-.193-.064-.709-.451-.839-.451 0-.322.193-.451.193-.709-.773.387-1.806-.13-2.193-.904-.193-.452-.322-2.902-.451-3.418v-.193c-.192.707-.579 1.481-.773 2.191-1.097 3.16-.774 2.451.322 5.611.258.772-1.032 1.999-1.548 2.646-.387.516-.452.516-.452 1.159 0 .517.646 1.032 1.226 1.032.645 0 .903-.451 1.226-.839.258-.388 2.064-2.709 2.193-3.097.065-.385 0-.58-.064-.964zm7.287-1.485v2.128c0 .709.451 1.097 1.16 1.097h5.74c.646 0 1.161-.322 1.161-.968v-2.451c0-.451-.387-.901-.839-.901h-6.32c-.579 0-.902.514-.902 1.095zm-.709-5.16c0 .709-.129 2.128.258 2.515a.874.874 0 0 0 .71.388h3.418c.517 0 .901-.451.901-1.031v-2c0-.709-.451-1.032-1.096-1.032h-2.967c-.772 0-1.224.322-1.224 1.16zM3.969 3.19c.71 1.419 2.58 1.548 3.547.323 1.032-1.29.065-3.29-1.677-3.354-1.547 0-2.578 1.677-1.87 3.031zm-.967 2.773c.58-.322.451-.387 1.29-.452.774 0 1.419.709 1.548 1.419 0 .258.065.645.065.903.258-.128.516-.193.774-.322.129-.709 0-1.419-.516-1.87-1.29-1.354-2.967-.258-3.161.322z"/></g></svg>