<?xml version="1.0" encoding="UTF-8" standalone="no"?>
<svg width="16px" height="20px" viewBox="0 0 16 20" version="1.1" xmlns="http://www.w3.org/2000/svg" xmlns:xlink="http://www.w3.org/1999/xlink">
    <!-- Generator: Sketch 48.2 (47327) - http://www.bohemiancoding.com/sketch -->
    <title>Shape</title>
    <desc>Created with Sketch.</desc>
    <defs></defs>
    <g id="Page-1" stroke="none" stroke-width="1" fill="none" fill-rule="evenodd">
        <g id="bin-icon" fill="#2B2926" fill-rule="nonzero">
            <path d="M11.497,2.542 C11.532,2.685 11.68,2.802 11.826,2.802 L14.667,2.802 C15.133341,2.79947992 15.5297615,3.14203042 15.5949,3.60380662 C15.6600385,4.06558282 15.3738416,4.50442379 14.925,4.631 L14.438,18.035 C14.3930699,19.1302221 13.4941364,19.9961065 12.398,20 L3.602,20 C2.509,20 1.602,19.123 1.563,18.034 L1.075,4.63 C0.629282376,4.50059701 0.346450571,4.06325043 0.411278159,3.60367811 C0.476105747,3.14410579 0.8688791,2.80206054 1.333,2.801 L4.174,2.801 C4.32777126,2.79362521 4.45972312,2.68902923 4.502,2.541 L4.701,1.743 C4.95,0.756 5.916,0 6.933,0 L9.068,0 C10.085,0 11.049,0.756 11.297,1.744 L11.497,2.542 Z M7.333,7.068 L7.333,16.132 C7.333,16.5006501 7.63184993,16.7995 8.0005,16.7995 C8.36915007,16.7995 8.668,16.5006501 8.668,16.132 L8.668,7.068 C8.67747061,6.82336286 8.55235775,6.59314461 8.34193349,6.46801005 C8.13150923,6.3428755 7.86949077,6.3428755 7.65906651,6.46801005 C7.44864225,6.59314461 7.32352939,6.82336286 7.333,7.068 Z M4.267,7.087 L4.534,16.152 C4.54114531,16.3901175 4.67478203,16.6063352 4.88457051,16.7192059 C5.09435898,16.8320767 5.34842735,16.8244527 5.55107051,16.6992059 C5.75371367,16.5739592 5.87414532,16.3501175 5.867,16.112 L5.6,7.047 C5.5802847,6.68552614 5.27583212,6.40576707 4.91398388,6.41662523 C4.55213564,6.42748339 4.26500548,6.72499438 4.267,7.087 Z M10.4,7.047 L10.132,16.114 C10.1187683,16.3559711 10.2378161,16.5860824 10.4429652,16.7150745 C10.6481142,16.8440666 10.9070855,16.8516434 11.1194252,16.7348659 C11.3317648,16.6180884 11.4640623,16.3953308 11.465,16.153 L11.732,7.089 C11.743598,6.72117836 11.4548216,6.41359798 11.087,6.402 C10.7191784,6.39040202 10.411598,6.67917836 10.4,7.047 Z M6.496,2.802 L9.505,2.802 C9.577,2.802 9.623,2.744 9.608,2.673 L9.487,2.198 C9.45,2.04 9.229,1.868 9.069,1.868 L6.933,1.868 C6.773,1.868 6.554,2.04 6.514,2.198 L6.395,2.672 C6.376,2.745 6.423,2.802 6.496,2.802 Z" id="Shape"></path>
        </g>
    </g>
</svg>