<?xml version="1.0" encoding="utf-8"?>
<!-- Generator: Adobe Illustrator 16.0.0, SVG Export Plug-In . SVG Version: 6.00 Build 0)  -->
<!DOCTYPE svg PUBLIC "-//W3C//DTD SVG 1.1//EN" "http://www.w3.org/Graphics/SVG/1.1/DTD/svg11.dtd">
<svg version="1.1" id="Layer_1" xmlns="http://www.w3.org/2000/svg" xmlns:xlink="http://www.w3.org/1999/xlink" x="0px" y="0px"
	 width="20px" height="20px" viewBox="0 0 20 20" enable-background="new 0 0 20 20" xml:space="preserve">
<g>
	<g>
		<path fill="#FFA300" d="M13.497,2.542c0.035,0.143,0.183,0.26,0.329,0.26h2.841c0.515,0,0.933,0.416,0.933,0.933
			c0,0.425-0.283,0.783-0.675,0.896l-0.487,13.404C16.398,19.126,15.49,20,14.398,20H5.602c-1.093,0-2-0.877-2.039-1.966L3.075,4.63
			C2.685,4.518,2.4,4.159,2.4,3.734c0-0.517,0.417-0.933,0.933-0.933h2.841c0.146,0,0.292-0.118,0.328-0.26l0.199-0.798
			C6.95,0.756,7.916,0,8.933,0h2.135c1.017,0,1.981,0.756,2.229,1.744L13.497,2.542z M9.333,7.068v9.064
			c0,0.37,0.298,0.668,0.667,0.668s0.668-0.298,0.668-0.668V7.068c0-0.37-0.3-0.668-0.668-0.668S9.333,6.698,9.333,7.068z
			 M6.267,7.087l0.267,9.065c0.011,0.369,0.319,0.658,0.686,0.646c0.37-0.011,0.658-0.318,0.647-0.686L7.6,7.047
			C7.589,6.679,7.282,6.391,6.914,6.401C6.547,6.413,6.256,6.719,6.267,7.087z M12.4,7.047l-0.268,9.067
			c-0.011,0.366,0.277,0.675,0.646,0.686c0.367,0.011,0.676-0.278,0.687-0.647l0.267-9.064c0.012-0.368-0.278-0.674-0.646-0.686
			C12.719,6.391,12.411,6.679,12.4,7.047z M8.496,2.802h3.009c0.072,0,0.118-0.058,0.103-0.129l-0.121-0.475
			c-0.037-0.158-0.258-0.33-0.418-0.33H8.933c-0.16,0-0.379,0.172-0.419,0.33L8.395,2.672C8.376,2.745,8.423,2.802,8.496,2.802z"/>
	</g>
</g>
</svg>
