<?xml version="1.0" encoding="utf-8"?>
<!-- Generator: Adobe Illustrator 16.0.0, SVG Export Plug-In . SVG Version: 6.00 Build 0)  -->
<!DOCTYPE svg PUBLIC "-//W3C//DTD SVG 1.1//EN" "http://www.w3.org/Graphics/SVG/1.1/DTD/svg11.dtd">
<svg version="1.1" id="Layer_1" xmlns="http://www.w3.org/2000/svg" xmlns:xlink="http://www.w3.org/1999/xlink" x="0px" y="0px"
	 width="20px" height="20px" viewBox="0 0 20 20" enable-background="new 0 0 20 20" xml:space="preserve">
<g>
	<g>
		<polygon fill="#FFA300" points="16.354,2.93 11.939,3.257 11.939,8.815 16.354,8.488 		"/>
		<polygon fill="#FFA300" points="7.036,8.488 11.449,8.815 11.449,3.257 7.036,2.93 		"/>
		<polygon fill="#FFA300" points="11.939,2.603 16.354,2.276 18.316,0.151 13.9,0.478 		"/>
		<polygon fill="#FFA300" points="11.285,2.603 9.325,0.478 4.911,0.151 6.872,2.276 		"/>
	</g>
	<g>
		<g>
			<path fill="#FFA300" d="M0.465,12.375h2.654c0.17,0,0.309,0.139,0.309,0.309v6.496c0,0.168-0.139,0.309-0.309,0.309H0.465
				c-0.169,0-0.307-0.141-0.307-0.309v-6.496C0.158,12.514,0.296,12.375,0.465,12.375z"/>
			<path fill="#FFA300" d="M3.735,12.848c8.734-3.361,7.88,0.319,7.792,0.639c-0.021,0.09-0.076,0.171-0.162,0.212l0,0l-3.823,1.911
				c3.465,0.943,6.918-0.479,9.188-1.418c1.235-0.508,2.143-0.885,2.658-0.692c0.526,0.196,0.614,0.78,0.157,2.022
				c-0.021,0.058-0.055,0.115-0.106,0.153l-0.189-0.241l0.186,0.241c-5.721,4.39-8.305,4.017-13.838,3.22
				C5,18.811,4.373,18.718,3.727,18.633v-5.781L3.735,12.848z"/>
		</g>
	</g>
</g>
</svg>
