<svg xmlns="http://www.w3.org/2000/svg" width="32" height="32" viewBox="0 0 32 32"><circle fill="#FFA300" cx="16.215" cy="16.167" r="15.906"/><path fill="#2B2926" d="M15.695 12.544L10.52 7.368a2.196 2.196 0 0 0-3.106 0 2.197 2.197 0 0 0 0 3.104l5.177 5.177a.733.733 0 0 1 0 1.035l-5.177 5.177a2.196 2.196 0 0 0 3.106 3.104l5.175-5.176a.733.733 0 0 1 1.036 0l5.175 5.176a2.195 2.195 0 1 0 3.107-3.104l-5.176-5.177a.733.733 0 0 1 0-1.035l5.176-5.177a2.197 2.197 0 0 0-3.107-3.104l-5.175 5.176a.733.733 0 0 1-1.036 0z"/></svg>