<?xml version="1.0" encoding="UTF-8" standalone="no"?>
<svg width="20px" height="20px" viewBox="0 0 20 20" version="1.1" xmlns="http://www.w3.org/2000/svg" xmlns:xlink="http://www.w3.org/1999/xlink">
    <!-- Generator: Sketch 48.1 (47250) - http://www.bohemiancoding.com/sketch -->
    <title>Shape</title>
    <desc>Created with Sketch.</desc>
    <defs></defs>
    <g id="Page-1" stroke="none" stroke-width="1" fill="none" fill-rule="evenodd">
        <g id="cancel-icon" fill="#FFA300" fill-rule="nonzero">
            <path d="M9.695,6.544 L4.52,1.368 C3.65806767,0.539117464 2.29137135,0.552253265 1.44553015,1.39754982 C0.599688944,2.24284637 0.585672826,3.60953395 1.414,4.472 L6.591,9.649 C6.87617696,9.93506819 6.87617696,10.3979318 6.591,10.684 L1.414,15.861 C0.585672826,16.7234661 0.599688944,18.0901536 1.44553015,18.9354502 C2.29137135,19.7807467 3.65806767,19.7938825 4.52,18.965 L9.695,13.789 C9.98118341,13.5031578 10.4448166,13.5031578 10.731,13.789 L15.906,18.965 C16.7652518,19.8105562 18.1454955,19.8053456 18.9983386,18.9533259 C19.8511818,18.1013062 19.8577258,16.7210682 19.013,15.861 L13.837,10.684 C13.551823,10.3979318 13.551823,9.93506819 13.837,9.649 L19.013,4.472 C19.8248923,3.60669722 19.8030176,2.25307378 18.9635898,1.4144565 C18.124162,0.575839206 16.7705181,0.555272172 15.906,1.368 L10.731,6.544 C10.4448166,6.82984219 9.98118341,6.82984219 9.695,6.544 Z" id="Shape"></path>
        </g>
    </g>
</svg>