<?xml version="1.0" encoding="utf-8"?>
<!-- Generator: Adobe Illustrator 16.0.0, SVG Export Plug-In . SVG Version: 6.00 Build 0)  -->
<!DOCTYPE svg PUBLIC "-//W3C//DTD SVG 1.1//EN" "http://www.w3.org/Graphics/SVG/1.1/DTD/svg11.dtd">
<svg version="1.1" id="Layer_1" xmlns="http://www.w3.org/2000/svg" xmlns:xlink="http://www.w3.org/1999/xlink" x="0px" y="0px"
	 width="32px" height="32px" viewBox="0 0 32 32" enable-background="new 0 0 32 32" xml:space="preserve">
<circle fill="#FFA300" cx="16.215" cy="16.167" r="15.906"/>
<path fill="#2B2926" d="M15.695,12.544l-5.175-5.176l0,0c-0.857-0.858-2.247-0.858-3.106,0l0,0l0,0
	c-0.856,0.857-0.856,2.247,0,3.104l5.177,5.177l0,0c0.285,0.286,0.285,0.749,0,1.035l-5.177,5.177l0,0
	c-0.856,0.857-0.856,2.248,0,3.104l0,0l0,0c0.859,0.858,2.249,0.858,3.106,0l5.175-5.176l0,0c0.287-0.286,0.75-0.286,1.036,0
	l5.175,5.176l0,0c0.859,0.858,2.25,0.858,3.107,0l0,0l0,0c0.857-0.856,0.857-2.247,0-3.104l-5.176-5.177l0,0
	c-0.285-0.286-0.285-0.749,0-1.035l5.176-5.177l0,0c0.857-0.857,0.857-2.247,0-3.104l0,0l0,0c-0.857-0.858-2.248-0.858-3.107,0
	l-5.175,5.176l0,0C16.445,12.83,15.982,12.83,15.695,12.544z"/>
</svg>
