<?xml version="1.0" encoding="utf-8"?>
<!-- Generator: Adobe Illustrator 16.0.0, SVG Export Plug-In . SVG Version: 6.00 Build 0)  -->
<!DOCTYPE svg PUBLIC "-//W3C//DTD SVG 1.1//EN" "http://www.w3.org/Graphics/SVG/1.1/DTD/svg11.dtd">
<svg version="1.1" id="Layer_1" xmlns="http://www.w3.org/2000/svg" xmlns:xlink="http://www.w3.org/1999/xlink" x="0px" y="0px"
	 width="20px" height="20px" viewBox="0 0 20 20" enable-background="new 0 0 20 20" xml:space="preserve">
<path fill="#FFA300" d="M18.098,5.723c-0.623,0-1.13,0.506-1.13,1.126c0,0.62,0.507,1.125,1.13,1.125
	c0.619,0,1.123-0.505,1.123-1.125C19.221,6.229,18.717,5.723,18.098,5.723z M1.906,5.723c-0.623,0-1.128,0.506-1.128,1.126
	c0,0.62,0.505,1.125,1.128,1.125c0.62,0,1.126-0.505,1.126-1.125C3.032,6.229,2.526,5.723,1.906,5.723z M14.745,3.675
	c-0.925,0-1.675,0.751-1.675,1.677c0,0.922,0.75,1.672,1.675,1.672c0.926,0,1.678-0.75,1.678-1.672
	C16.423,4.427,15.668,3.675,14.745,3.675z M19.945,16.036h-1.909v-4.476c0-0.771-0.179-1.483-0.463-2.105
	c0.167-0.063,0.339-0.107,0.522-0.107c1.018,0,1.85,1.058,1.85,2.358V16.036z M5.255,3.675c-0.925,0-1.677,0.751-1.677,1.677
	c0,0.922,0.752,1.672,1.677,1.672c0.922,0,1.675-0.75,1.675-1.672C6.93,4.427,6.177,3.675,5.255,3.675z M1.906,9.347
	c0.182,0,0.352,0.045,0.52,0.107c-0.287,0.622-0.462,1.336-0.462,2.104v4.478H0.055v-4.331C0.055,10.404,0.886,9.347,1.906,9.347z
	 M9.998,0.326c-1.365,0-2.478,1.111-2.478,2.477c0,1.366,1.111,2.479,2.478,2.479s2.479-1.113,2.479-2.479
	C12.479,1.437,11.365,0.326,9.998,0.326z M17.422,17.702h-2.926v-6.812c0-0.937-0.191-1.808-0.508-2.59
	c0.238-0.089,0.49-0.154,0.754-0.154c1.477,0,2.68,1.53,2.68,3.414V17.702z M5.5,10.891v6.813H2.577v-6.143
	c0-1.882,1.201-3.414,2.68-3.414c0.263,0,0.512,0.065,0.75,0.154C5.693,9.083,5.5,9.954,5.5,10.891z M6.113,19.674h7.77v-8.783
	c0-2.729-1.744-4.95-3.885-4.95c-2.144,0-3.885,2.221-3.885,4.95V19.674z"/>
</svg>
