<svg xmlns="http://www.w3.org/2000/svg" width="20" height="20" viewBox="0 0 20 20"><path fill="#FFA300" d="M18.098 5.723a1.13 1.13 0 0 0-1.13 1.126 1.126 1.126 0 1 0 1.13-1.126zm-16.192 0c-.623 0-1.128.506-1.128 1.126a1.127 1.127 0 0 0 2.254 0c0-.62-.506-1.126-1.126-1.126zm12.839-2.048a1.674 1.674 0 1 0 0 3.349c.926 0 1.678-.75 1.678-1.672a1.68 1.68 0 0 0-1.678-1.677zm5.2 12.361h-1.909V11.56c0-.771-.179-1.483-.463-2.105a1.47 1.47 0 0 1 .522-.107c1.018 0 1.85 1.058 1.85 2.358v4.33zM5.255 3.675c-.925 0-1.677.751-1.677 1.677a1.676 1.676 0 0 0 3.352 0c0-.925-.753-1.677-1.675-1.677zM1.906 9.347c.182 0 .352.045.52.107a5.018 5.018 0 0 0-.462 2.104v4.478H.055v-4.331c0-1.301.831-2.358 1.851-2.358zM9.998.326A2.481 2.481 0 0 0 7.52 2.803c0 1.366 1.111 2.479 2.478 2.479s2.479-1.113 2.479-2.479A2.48 2.48 0 0 0 9.998.326zm7.424 17.376h-2.926V10.89a6.87 6.87 0 0 0-.508-2.59c.238-.089.49-.154.754-.154 1.477 0 2.68 1.53 2.68 3.414v6.142zM5.5 10.891v6.813H2.577v-6.143c0-1.882 1.201-3.414 2.68-3.414.263 0 .512.065.75.154a6.93 6.93 0 0 0-.507 2.59zm.613 8.783h7.77v-8.783c0-2.729-1.744-4.95-3.885-4.95-2.144 0-3.885 2.221-3.885 4.95v8.783z"/></svg>