<?xml version="1.0" encoding="utf-8"?>
<!-- Generator: Adobe Illustrator 16.0.0, SVG Export Plug-In . SVG Version: 6.00 Build 0)  -->
<!DOCTYPE svg PUBLIC "-//W3C//DTD SVG 1.1//EN" "http://www.w3.org/Graphics/SVG/1.1/DTD/svg11.dtd">
<svg version="1.1" id="Layer_1" xmlns="http://www.w3.org/2000/svg" xmlns:xlink="http://www.w3.org/1999/xlink" x="0px" y="0px"
	 width="20px" height="20px" viewBox="0 0 20 20" enable-background="new 0 0 20 20" xml:space="preserve">
<g>
	<path fill="#FFA300" d="M0.413,10.488l5.694,6.507c0.163,0.244,0.407,0.325,0.651,0.325H17.33c1.383,0,2.44-1.059,2.44-2.44V5.12
		c0-1.383-1.058-2.441-2.44-2.441H6.757c-0.245,0-0.488,0.082-0.651,0.245L0.413,9.431C0.168,9.756,0.168,10.163,0.413,10.488z
		 M11.313,10L9.441,8.129c-0.325-0.326-0.325-0.813,0-1.139c0.325-0.325,0.813-0.325,1.139,0l1.871,1.872l1.871-1.872
		c0.324-0.325,0.813-0.325,1.139,0c0.324,0.326,0.324,0.813,0,1.139L13.59,10l1.869,1.87c0.326,0.325,0.326,0.813,0,1.139
		c-0.162,0.163-0.405,0.244-0.568,0.244c-0.162,0-0.407-0.081-0.568-0.244l-1.871-1.87l-1.871,1.87
		c-0.163,0.163-0.407,0.244-0.569,0.244c-0.162,0-0.407-0.081-0.569-0.244c-0.325-0.325-0.325-0.813,0-1.139L11.313,10z"/>
</g>
</svg>
