<svg xmlns="http://www.w3.org/2000/svg" width="20" height="20" viewBox="0 0 20 20"><path fill="#FFA300" d="M.413 10.488l5.694 6.507c.163.244.407.325.651.325H17.33c1.383 0 2.44-1.059 2.44-2.44V5.12c0-1.383-1.058-2.441-2.44-2.441H6.757a.923.923 0 0 0-.651.245L.413 9.431a.852.852 0 0 0 0 1.057zm10.9-.488L9.441 8.129a.787.787 0 0 1 0-1.139.787.787 0 0 1 1.139 0l1.871 1.872 1.871-1.872a.787.787 0 0 1 1.139 0 .789.789 0 0 1 0 1.139L13.59 10l1.869 1.87a.786.786 0 0 1 0 1.139.872.872 0 0 1-.568.244.872.872 0 0 1-.568-.244l-1.871-1.87-1.871 1.87a.878.878 0 0 1-.569.244.876.876 0 0 1-.569-.244.787.787 0 0 1 0-1.139l1.87-1.87z"/></svg>