<?xml version="1.0" encoding="UTF-8" standalone="no"?>
<svg width="16px" height="20px" viewBox="0 0 16 20" version="1.1" xmlns="http://www.w3.org/2000/svg" xmlns:xlink="http://www.w3.org/1999/xlink">
    <!-- Generator: Sketch 48.1 (47250) - http://www.bohemiancoding.com/sketch -->
    <title>Shape</title>
    <desc>Created with Sketch.</desc>
    <defs></defs>
    <g id="Page-1" stroke="none" stroke-width="1" fill="none" fill-rule="evenodd">
        <g id="edit-icon" fill="#333333" fill-rule="nonzero">
            <path d="M14.271,2.111 L11.466,0.339 C11.0674182,0.0871678393 10.5850957,0.00405561548 10.1252145,0.107960258 C9.66533331,0.2118649 9.26559469,0.494268257 9.014,0.893 L1.299,13.106 C1.1434342,13.3603015 1.05022988,13.6477957 1.027,13.945 L0.708,19.094 C0.678,19.392 0.838,19.672 1.099,19.856 C1.28678354,19.9722298 1.51310927,20.0089312 1.728,19.958 C1.798,19.941 1.891,19.922 1.954,19.883 L6.467,17.384 C6.725,17.229 6.946,17.032 7.108,16.776 L14.823,4.562 C15.0756867,4.16404834 15.1591909,3.68173943 15.055,3.222 C14.9525338,2.76182244 14.6702244,2.36176407 14.271,2.111 Z M2.624,14.995 L4.834,16.39 L2.459,17.703 L2.624,14.995 Z M13.412,3.689 L12.194,5.617 L9.191,3.719 L10.407,1.793 C10.426,1.764 10.472,1.754 10.494,1.749 C10.5266342,1.73898057 10.5615727,1.73932995 10.594,1.75 L13.399,3.522 C13.427,3.54 13.437,3.586 13.442,3.608 C13.449,3.633 13.43,3.662 13.412,3.689 Z" id="Shape"></path>
        </g>
    </g>
</svg>