<?xml version="1.0" encoding="utf-8"?>
<!-- Generator: Adobe Illustrator 16.0.0, SVG Export Plug-In . SVG Version: 6.00 Build 0)  -->
<!DOCTYPE svg PUBLIC "-//W3C//DTD SVG 1.1//EN" "http://www.w3.org/Graphics/SVG/1.1/DTD/svg11.dtd">
<svg version="1.1" id="Layer_1" xmlns="http://www.w3.org/2000/svg" xmlns:xlink="http://www.w3.org/1999/xlink" x="0px" y="0px"
	 width="20px" height="20px" viewBox="0 0 20 20" enable-background="new 0 0 20 20" xml:space="preserve">
<path fill="#FFA300" d="M16.271,2.111l-2.805-1.772c-0.397-0.25-0.878-0.336-1.341-0.231c-0.461,0.104-0.859,0.389-1.111,0.785
	L3.299,13.106c-0.161,0.254-0.243,0.541-0.272,0.839l-0.319,5.149c-0.03,0.298,0.13,0.578,0.391,0.762
	c0.198,0.124,0.422,0.148,0.629,0.102c0.07-0.017,0.163-0.036,0.226-0.075l4.513-2.499c0.258-0.155,0.479-0.352,0.641-0.608
	l7.715-12.214c0.251-0.396,0.337-0.878,0.232-1.34C16.952,2.759,16.669,2.362,16.271,2.111z M4.624,14.995l2.21,1.395l-2.375,1.313
	L4.624,14.995z M15.412,3.689l-1.218,1.928l-3.003-1.898l1.216-1.926c0.019-0.029,0.065-0.039,0.087-0.044
	c0.023-0.007,0.047-0.012,0.1,0.001l2.805,1.772c0.028,0.018,0.038,0.064,0.043,0.086C15.449,3.633,15.43,3.662,15.412,3.689z"/>
</svg>
