<?xml version="1.0" encoding="utf-8"?>
<!-- Generator: Adobe Illustrator 16.0.0, SVG Export Plug-In . SVG Version: 6.00 Build 0)  -->
<!DOCTYPE svg PUBLIC "-//W3C//DTD SVG 1.1//EN" "http://www.w3.org/Graphics/SVG/1.1/DTD/svg11.dtd">
<svg version="1.1" id="Layer_1" xmlns="http://www.w3.org/2000/svg" xmlns:xlink="http://www.w3.org/1999/xlink" x="0px" y="0px"
	 width="20px" height="20px" viewBox="0 0 20 20" enable-background="new 0 0 20 20" xml:space="preserve">
<g>
	<path fill="#FFA300" d="M3.214,10.979v7.927c0.005,0.306,0.202,0.49,0.358,0.583c0.171,0.094,0.348,0.138,0.544,0.138H7.73
		c0.122,0,0.245-0.049,0.333-0.138c0.089-0.088,0.138-0.21,0.138-0.333v-3.814h3.598v3.814c0,0.123,0.051,0.245,0.138,0.333
		c0.089,0.089,0.212,0.138,0.339,0.138h3.607c0.197,0,0.379-0.044,0.545-0.138c0.156-0.093,0.354-0.277,0.358-0.583v-7.927
		l-6.785-6.173L3.214,10.979z M19.422,8.793l-8.565-7.795c-0.485-0.441-1.229-0.441-1.715,0L0.578,8.793
		c-0.52,0.47-0.554,1.27-0.079,1.783v0.006c0.25,0.27,0.593,0.406,0.937,0.406c0.309,0,0.618-0.107,0.862-0.328L10,3.645
		l7.707,7.015c0.515,0.472,1.324,0.438,1.793-0.078C19.976,10.063,19.941,9.263,19.422,8.793L19.422,8.793z"/>
	<polygon fill="#FFA300" points="8.182,1.014 2.399,6.004 2.399,1.014 	"/>
</g>
</svg>
