<?xml version="1.0" encoding="utf-8"?>
<!-- Generator: Adobe Illustrator 16.0.0, SVG Export Plug-In . SVG Version: 6.00 Build 0)  -->
<!DOCTYPE svg PUBLIC "-//W3C//DTD SVG 1.1//EN" "http://www.w3.org/Graphics/SVG/1.1/DTD/svg11.dtd">
<svg version="1.1" id="Layer_1" xmlns="http://www.w3.org/2000/svg" xmlns:xlink="http://www.w3.org/1999/xlink" x="0px" y="0px"
	 width="32px" height="32px" viewBox="0 0 32 32" enable-background="new 0 0 32 32" xml:space="preserve">
<path fill="#2B2926" d="M22.99,25.79C23,25.77,23,25.74,23,25.71"/>
<path fill="#2B2926" d="M22.99,25.79C23,25.77,23,25.74,23,25.71l0.01-0.03v0.051"/>
<path fill="none" d="M23,25.58c0,0.05,0,0.1,0,0.14c0,0,0,0,0.01,0.011 M22.63,26.86l0.061-0.03c0.01-0.021,0.02-0.05,0.04-0.07
	L22.63,26.86z"/>
<path fill="#2B2926" d="M22.99,25.79v0.05L23,25.79v-0.21C23,25.65,23,25.72,22.99,25.79z"/>
<g>
	<circle fill="#FFA300" cx="16.042" cy="16.167" r="15.958"/>
	<path fill="#2B2926" stroke="#2B2926" stroke-miterlimit="10" d="M13.661,16.454c0.013-0.013,0.013-0.026,0.013-0.039
		c0.012-0.012,0.012-0.027,0.027-0.053c0-0.014,0.013-0.027,0.013-0.04c0-0.013,0.013-0.025,0.013-0.04
		c0.013-0.065,0.013-0.119,0-0.184c0-0.013-0.013-0.026-0.013-0.039c0-0.014-0.013-0.028-0.013-0.04
		c-0.015-0.015-0.015-0.027-0.027-0.053c0-0.013-0.013-0.026-0.013-0.026c-0.014-0.027-0.04-0.053-0.052-0.066l-2.483-2.483
		c-0.185-0.184-0.474-0.184-0.657,0c-0.185,0.185-0.185,0.473,0,0.658l1.694,1.694H6.607c-0.251,0-0.461,0.21-0.461,0.459
		c0,0.25,0.209,0.459,0.461,0.459h5.543l-1.694,1.694c-0.185,0.185-0.185,0.473,0,0.657c0.091,0.094,0.21,0.132,0.328,0.132
		c0.119,0,0.237-0.038,0.329-0.132l2.483-2.482C13.633,16.507,13.646,16.481,13.661,16.454z"/>
	<g>
		<path fill="#2B2926" d="M13.028,19.246v6.531h1.117v0.919h-1.578c-0.249,0-0.459-0.197-0.459-0.46v-6.99H13.028z"/>
	</g>
	<path fill="#2B2926" d="M22.37,6.32L22.36,6h-9.78C12.3,6,12,6.73,12,6.98V13h1V7h6.66l-4.32,1.73C15.16,8.8,15,9.18,15,9.38v19.26
		c0,0.16,0.09,0.29,0.22,0.38c0.08,0.061,0.19,0.08,0.28,0.08c0.05,0,0.43-0.02,0.48-0.029l6.49-2.16c0.011,0,0.061,0,0.13-0.04
		c0.011-0.01,0.021-0.01,0.03-0.01l0.101-0.101c0.01-0.01,0.024-0.02,0.034-0.04L23,25.84v-0.05c0-0.07,0-0.14,0-0.21V7.24
		C23,6.75,22.44,6.33,22.37,6.32z M16.76,18.53c-0.39,0-0.72-0.32-0.72-0.72c0-0.391,0.33-0.711,0.72-0.711
		c0.4,0,0.721,0.32,0.721,0.711C17.48,18.21,17.16,18.53,16.76,18.53z"/>
</g>
<path fill="#2B2926" d="M22.99,25.84c-0.07,1.21-0.521,1.07-0.521,1.07c0.011,0,0.061,0,0.13-0.04c0.011-0.01,0.021-0.01,0.03-0.01
	l0.101-0.101c0.01-0.01,0.02-0.02,0.029-0.04L22.99,25.84z"/>
</svg>
