<?xml version="1.0" encoding="utf-8"?>
<!-- Generator: Adobe Illustrator 16.0.0, SVG Export Plug-In . SVG Version: 6.00 Build 0)  -->
<!DOCTYPE svg PUBLIC "-//W3C//DTD SVG 1.1//EN" "http://www.w3.org/Graphics/SVG/1.1/DTD/svg11.dtd">
<svg version="1.1" id="Layer_1" xmlns="http://www.w3.org/2000/svg" xmlns:xlink="http://www.w3.org/1999/xlink" x="0px" y="0px"
	 width="20px" height="20px" viewBox="0 0 20 20" enable-background="new 0 0 20 20" xml:space="preserve">
<g>
	<path fill="#FFA300" d="M10.66,13.031c0-0.34,0.189-0.615,0.421-0.615h4.427c0.235,0,0.422,0.275,0.422,0.615
		c0,0.338-0.188,0.613-0.422,0.613h-4.427C10.85,13.645,10.66,13.369,10.66,13.031z"/>
	<path fill="#FFA300" d="M10.66,15.888c0-0.339,0.189-0.613,0.421-0.613h4.427c0.235,0,0.422,0.274,0.422,0.613
		c0,0.337-0.188,0.615-0.422,0.615h-4.427C10.85,16.503,10.66,16.225,10.66,15.888z"/>
	<path fill="#FFA300" d="M10.66,7.44c0-0.344,0.189-0.623,0.421-0.623h4.427c0.235,0,0.422,0.279,0.422,0.623
		c0,0.345-0.188,0.623-0.422,0.623h-4.427C10.85,8.063,10.66,7.785,10.66,7.44z"/>
	<path fill="#FFA300" d="M10.66,10.338c0-0.344,0.189-0.623,0.421-0.623h4.427c0.235,0,0.422,0.279,0.422,0.623
		s-0.188,0.622-0.422,0.622h-4.427C10.85,10.96,10.66,10.682,10.66,10.338z"/>
	<path fill="#FFA300" d="M8.201,7.84c-0.11-0.085-0.267-0.065-0.352,0.045L7.143,8.794L6.842,8.492
		C6.74,8.399,6.581,8.403,6.486,8.505c-0.089,0.096-0.089,0.247,0,0.342l0.502,0.503C7.036,9.398,7.1,9.423,7.166,9.423h0.016
		c0.072-0.006,0.139-0.04,0.185-0.096l0.878-1.133C8.33,8.085,8.312,7.926,8.201,7.84C8.201,7.841,8.201,7.84,8.201,7.84z"/>
	<path fill="#FFA300" stroke="#FFA300" stroke-width="0.75" stroke-miterlimit="10" d="M15.688,2.417h-1.885
		c-0.219-1.069-1.161-1.838-2.252-1.838H9.253c-1.092,0-2.033,0.769-2.251,1.838H5.117c-1.269,0-2.297,1.029-2.297,2.298v12.406
		c0,1.271,1.029,2.298,2.297,2.298h10.571c1.268,0,2.296-1.027,2.296-2.298V4.716C17.984,3.446,16.955,2.417,15.688,2.417z
		 M7.875,2.877c0-0.761,0.617-1.377,1.378-1.377h2.297c0.762,0,1.377,0.617,1.377,1.377v0.919H7.874L7.875,2.877L7.875,2.877z
		 M17.064,17.122c0,0.761-0.615,1.378-1.377,1.378H5.117c-0.762,0-1.378-0.617-1.378-1.378V4.716c0-0.762,0.616-1.378,1.378-1.378
		h1.838v0.919c0,0.254,0.206,0.459,0.459,0.459h5.974c0.253,0,0.459-0.206,0.459-0.459v-0.92h1.84c0.762,0,1.376,0.616,1.376,1.378
		L17.064,17.122L17.064,17.122z"/>
	<rect x="5.262" y="6.59" fill="none" stroke="#FFA300" stroke-miterlimit="10" width="4.194" height="4.195"/>
	<path fill="#FFA300" d="M8.201,14.133c-0.109-0.086-0.267-0.065-0.352,0.045l-0.705,0.908l-0.301-0.301
		c-0.103-0.094-0.262-0.09-0.355,0.012c-0.089,0.096-0.089,0.246,0,0.342l0.502,0.503c0.047,0.047,0.111,0.072,0.177,0.072h0.016
		c0.071-0.005,0.138-0.04,0.184-0.097l0.878-1.131C8.33,14.377,8.312,14.219,8.201,14.133L8.201,14.133z"/>
	<rect x="5.262" y="12.883" fill="none" stroke="#FFA300" stroke-miterlimit="10" width="4.194" height="4.193"/>
</g>
</svg>
