<?xml version="1.0" encoding="UTF-8" standalone="no"?>
<svg width="22px" height="21px" viewBox="0 0 22 21" version="1.1" xmlns="http://www.w3.org/2000/svg" xmlns:xlink="http://www.w3.org/1999/xlink">
    <!-- Generator: Sketch 48.1 (47250) - http://www.bohemiancoding.com/sketch -->
    <title>Shape</title>
    <desc>Created with Sketch.</desc>
    <defs></defs>
    <g id="Page-1" stroke="none" stroke-width="1" fill="none" fill-rule="evenodd">
        <g id="print-icon" fill="#FFA300" fill-rule="nonzero">
            <path d="M7.785,0.446 C7.23159568,0.445468646 6.70070464,0.66507238 6.30938851,1.05638851 C5.91807238,1.44770464 5.69846865,1.97859568 5.699,2.532 L5.69899904,3.748 L16.589,3.748 L16.589,2.532 L16.593,2.532 C16.5927352,1.9781463 16.3723266,1.44711157 15.9803179,1.05585313 C15.5883092,0.664594691 15.0568532,0.445203789 14.503,0.446 L7.785,0.446 Z M2.608,4.547 C2.00754979,4.5475302 1.43190311,4.78656672 1.00769577,5.2115242 C0.583488436,5.63648169 0.345469333,6.2125498 0.346,6.813 L0.346,14.075 C0.346,15.326 1.356,16.335 2.608,16.335 L3.7,16.335 L3.7,12.547 C3.7,11.894 4.242,11.353 4.894,11.353 L17.391,11.353 C18.05,11.353 18.583,11.896 18.583,12.547 L18.583,16.335 L19.675,16.335 C20.2755905,16.3371281 20.8522831,16.0998974 21.27753,15.6757765 C21.7027769,15.2516556 21.9415357,14.675594 21.941,14.075 L21.941,6.813 C21.9420643,6.2116938 21.7036674,5.63470927 21.2784791,5.20952092 C20.8532907,4.78433256 20.2763062,4.54593574 19.675,4.547 L2.608,4.547 Z M15.949,6.792 L17.229,6.792 C17.515,6.792 17.75,7.025 17.75,7.315 L17.75,8.59 C17.7505327,8.72843224 17.6958449,8.86136288 17.5980517,8.95934379 C17.5002585,9.0573247 17.367433,9.11226724 17.229,9.112 L15.949,9.112 C15.8107402,9.11200102 15.6781722,9.05694101 15.5805956,8.9589891 C15.4830189,8.86103719 15.4284682,8.72825877 15.429,8.59 L15.429,7.315 C15.4284463,7.02709647 15.661098,6.79310255 15.949,6.792 Z M4.894,12.153 C4.78871985,12.1524666 4.68758306,12.1939844 4.61304398,12.2683358 C4.5385049,12.3426871 4.49673211,12.4437188 4.497,12.549 L4.497,20.131 C4.49589117,20.351527 4.67347636,20.5313488 4.894,20.533 L17.394,20.533 C17.613,20.533 17.794,20.352 17.794,20.131 L17.794,12.549 C17.7934709,12.4434434 17.7510306,12.3424205 17.6760157,12.2681558 C17.6010009,12.1938911 17.4995566,12.1524682 17.394,12.153 L4.894,12.153 Z M5.295,12.946 L16.997,12.946 L16.997,19.731 L5.295,19.731 L5.295,12.946 Z M6.838,14.273 C6.6182492,14.2724396 6.4391968,14.4492595 6.437,14.669 C6.437,14.89 6.618,15.066 6.838,15.066 L15.407,15.066 C15.5122812,15.0662679 15.6133129,15.0244951 15.6876642,14.949956 C15.7620156,14.8754169 15.8035334,14.7742801 15.803,14.669 C15.8035353,14.5638111 15.7619859,14.4627756 15.6876052,14.3883948 C15.6132244,14.3140141 15.5121889,14.2724647 15.407,14.273 L6.838,14.273 Z M6.838,15.978 C6.61721397,15.9796335 6.4386335,16.158214 6.437,16.379 C6.437,16.599 6.618,16.775 6.838,16.775 L15.407,16.775 C15.5121889,16.7755353 15.6132244,16.7339859 15.6876052,16.6596052 C15.7619859,16.5852244 15.8035353,16.4841889 15.803,16.379 C15.8037983,16.2732707 15.7624933,16.1715691 15.6881998,16.0963376 C15.6139063,16.021106 15.5127309,15.9785283 15.407,15.978 L6.838,15.978 Z M6.838,17.69 C6.61692375,17.6899993 6.43755131,17.8689244 6.437,18.09 C6.4391968,18.3097405 6.6182492,18.4865604 6.838,18.486 L15.407,18.486 C15.5121072,18.4862664 15.6129862,18.4446307 15.6873084,18.3703084 C15.7616307,18.2959862 15.8032664,18.1951072 15.803,18.09 C15.803,17.868 15.627,17.69 15.407,17.69 L6.838,17.69 Z" id="Shape"></path>
        </g>
    </g>
</svg>