<svg xmlns="http://www.w3.org/2000/svg" width="32" height="32" viewBox="0 0 32 32"><circle fill="#FFA300" cx="16.144" cy="15.854" r="15.761"/><path fill="#2B2926" d="M12.785 5.446a2.084 2.084 0 0 0-2.086 2.086v1.216h10.89V7.532h.004a2.087 2.087 0 0 0-2.09-2.086h-6.718zM7.608 9.547a2.264 2.264 0 0 0-2.262 2.266v7.262c0 1.251 1.01 2.26 2.262 2.26H8.7v-3.788c0-.653.542-1.194 1.194-1.194h12.497c.659 0 1.192.543 1.192 1.194v3.788h1.092a2.258 2.258 0 0 0 2.266-2.26v-7.262a2.262 2.262 0 0 0-2.266-2.266H7.608zm13.341 2.245h1.28c.286 0 .521.233.521.523v1.275a.52.52 0 0 1-.521.522h-1.28a.52.52 0 0 1-.52-.522v-1.275a.522.522 0 0 1 .52-.523zM9.894 17.153a.395.395 0 0 0-.397.396v7.582a.4.4 0 0 0 .397.402h12.5c.219 0 .4-.181.4-.402v-7.582a.398.398 0 0 0-.4-.396h-12.5zm.401.793h11.702v6.785H10.295v-6.785zm1.543 1.327a.4.4 0 0 0-.401.396c0 .221.181.397.401.397h8.569a.395.395 0 0 0 .396-.397.394.394 0 0 0-.396-.396h-8.569zm0 1.705a.404.404 0 0 0-.401.401c0 .22.181.396.401.396h8.569a.394.394 0 0 0 .396-.396.398.398 0 0 0-.396-.401h-8.569zm0 1.712a.401.401 0 0 0-.401.4.4.4 0 0 0 .401.396h8.569a.395.395 0 0 0 .396-.396c0-.222-.176-.4-.396-.4h-8.569z"/></svg>