<?xml version="1.0" encoding="utf-8"?>
<!-- Generator: Adobe Illustrator 16.0.0, SVG Export Plug-In . SVG Version: 6.00 Build 0)  -->
<!DOCTYPE svg PUBLIC "-//W3C//DTD SVG 1.1//EN" "http://www.w3.org/Graphics/SVG/1.1/DTD/svg11.dtd">
<svg version="1.1" id="Layer_1" xmlns="http://www.w3.org/2000/svg" xmlns:xlink="http://www.w3.org/1999/xlink" x="0px" y="0px"
	 width="32px" height="32px" viewBox="0 0 32 32" enable-background="new 0 0 32 32" xml:space="preserve">
<circle fill="#FFA300" cx="16.144" cy="15.854" r="15.761"/>
<g transform="translate(-213.367,-396.322)">
	<path fill="#2B2926" d="M226.152,401.768c-1.155,0-2.086,0.933-2.086,2.086v1.216h10.89v-1.216h0.004
		c0-1.154-0.936-2.086-2.09-2.086H226.152z M220.975,405.869c-1.251,0-2.262,1.016-2.262,2.266v7.262c0,1.251,1.01,2.26,2.262,2.26
		h1.092v-3.788c0-0.653,0.542-1.194,1.194-1.194h12.497c0.659,0,1.192,0.543,1.192,1.194v3.788h1.092
		c1.257,0,2.266-1.009,2.266-2.26v-7.262c0.002-1.25-1.009-2.266-2.266-2.266H220.975z M234.316,408.114h1.28
		c0.286,0,0.521,0.233,0.521,0.523v1.275c0,0.29-0.234,0.522-0.521,0.522h-1.28c-0.288,0-0.52-0.232-0.52-0.522v-1.275
		C233.797,408.348,234.028,408.114,234.316,408.114z M223.261,413.475c-0.22,0-0.397,0.176-0.397,0.396v7.582
		c0,0.22,0.176,0.402,0.397,0.402h12.5c0.219,0,0.4-0.181,0.4-0.402v-7.582c0-0.221-0.182-0.396-0.4-0.396H223.261z
		 M223.662,414.268h11.702v6.785h-11.702V414.268L223.662,414.268z M225.205,415.595c-0.22,0-0.401,0.178-0.401,0.396
		c0,0.221,0.181,0.397,0.401,0.397h8.569c0.219,0,0.396-0.176,0.396-0.397c0-0.221-0.176-0.396-0.396-0.396H225.205L225.205,415.595
		z M225.205,417.3c-0.22,0-0.401,0.183-0.401,0.401c0,0.22,0.181,0.396,0.401,0.396h8.569c0.219,0,0.396-0.175,0.396-0.396
		c0-0.221-0.176-0.401-0.396-0.401H225.205z M225.205,419.012c-0.22,0-0.401,0.179-0.401,0.4c0.002,0.22,0.181,0.396,0.401,0.396
		h8.569c0.219,0,0.396-0.176,0.396-0.396c0-0.222-0.176-0.4-0.396-0.4H225.205z"/>
</g>
</svg>
