<?xml version="1.0" encoding="utf-8"?>
<!-- Generator: Adobe Illustrator 16.0.0, SVG Export Plug-In . SVG Version: 6.00 Build 0)  -->
<!DOCTYPE svg PUBLIC "-//W3C//DTD SVG 1.1//EN" "http://www.w3.org/Graphics/SVG/1.1/DTD/svg11.dtd">
<svg version="1.1" id="Layer_1" xmlns="http://www.w3.org/2000/svg" xmlns:xlink="http://www.w3.org/1999/xlink" x="0px" y="0px"
	 width="20px" height="20px" viewBox="0 0 20 20" enable-background="new 0 0 20 20" xml:space="preserve">
<g>
	<path fill="#FFA300" d="M16.323,14.192l-3.535,1.597c-0.017,0.008-0.031,0.01-0.05,0.01c-0.039,0-0.076-0.021-0.1-0.056
		l-2.379-3.841V20l6.063-3.063L16.323,14.192L16.323,14.192z"/>
	<polygon fill="#FFA300" points="10.237,10.786 12.75,14.841 16.424,13.182 16.426,13.182 19.172,11.941 16.77,8.08 	"/>
	<polygon fill="#FFA300" points="10.026,4.346 16.953,7.494 20.063,4.093 13.853,2.062 	"/>
	<polygon fill="#FFA300" points="3.775,7.427 9.702,10.122 15.721,7.626 9.747,4.912 	"/>
	<path fill="#FFA300" d="M9.116,11.902l-2.467,3.843c-0.032,0.051-0.097,0.067-0.151,0.041l-3.474-1.763v2.777l6.09,3.183
		L9.116,11.902L9.116,11.902z"/>
	<polygon fill="#FFA300" points="2.556,7.25 9.521,4.317 6.599,1.455 -0.063,3.675 	"/>
	<polygon fill="#FFA300" points="6.506,14.751 9.052,10.786 2.763,7.926 0.369,11.635 	"/>
</g>
</svg>
