<?xml version="1.0" encoding="utf-8"?>
<!-- Generator: Adobe Illustrator 16.0.0, SVG Export Plug-In . SVG Version: 6.00 Build 0)  -->
<!DOCTYPE svg PUBLIC "-//W3C//DTD SVG 1.1//EN" "http://www.w3.org/Graphics/SVG/1.1/DTD/svg11.dtd">
<svg version="1.1" id="Layer_1" xmlns="http://www.w3.org/2000/svg" xmlns:xlink="http://www.w3.org/1999/xlink" x="0px" y="0px"
	 width="20px" height="20px" viewBox="0 0 20 20" enable-background="new 0 0 20 20" xml:space="preserve">
<g>
	<g>
		<circle fill="#FFA300" cx="7.395" cy="17.992" r="1.64"/>
		<circle fill="#FFA300" cx="14.55" cy="17.992" r="1.64"/>
		<path fill="#FFA300" d="M18.727,7.365c-2.095,0-10.121,0-10.121,0S8.007,7.5,8.007,8.158c0,0.658,0.598,0.85,0.598,0.85h9.073
			l-0.509,1.725c-2.483,0-8.918,0-8.918,0s-0.558,0.127-0.558,0.738c0,0.614,0.558,0.793,0.558,0.793h8.448h0.019l-0.478,1.613
			H7.032L6.421,9.008L6.222,7.365c0,0-0.178-1.517-0.279-2.143c-0.1-0.63-1.673-1.417-5.055-3.011c-0.795-0.333-1.46,1.122,0,1.883
			L3.555,5.34c0,0,0.62,0.36,0.673,0.843c0.054,0.486,1.136,8.508,1.136,8.508s0.044,1.115,1.058,1.115c1.014,0,9.327,0,10.178,0
			c0.852,0,1.017-0.89,1.017-0.89l2.017-5.99C19.632,8.928,20.23,7.365,18.727,7.365z"/>
	</g>
	<path fill="#FFA300" d="M13.607,8H9.493l0.583-1.797c0.212-0.439,0.742-0.922,1.183-0.708l1.855,1.349
		C13.4,6.984,13.579,7,13.607,8z"/>
	<path fill="#FFA300" d="M18.047,8h-4.273l-0.101-0.915c-0.146-0.506,0.146-1.317,0.647-1.462l2.127-0.755
		c0.503-0.144,1.027,0.646,1.174,1.15L18.047,8z"/>
</g>
</svg>
