<?xml version="1.0" encoding="utf-8"?>
<!-- Generator: Adobe Illustrator 16.0.0, SVG Export Plug-In . SVG Version: 6.00 Build 0)  -->
<!DOCTYPE svg PUBLIC "-//W3C//DTD SVG 1.1//EN" "http://www.w3.org/Graphics/SVG/1.1/DTD/svg11.dtd">
<svg version="1.1" id="Layer_1" xmlns="http://www.w3.org/2000/svg" xmlns:xlink="http://www.w3.org/1999/xlink" x="0px" y="0px"
	 width="32px" height="32px" viewBox="0 0 32 32" enable-background="new 0 0 32 32" xml:space="preserve">
<circle fill="#FFA300" cx="16.109" cy="16.167" r="15.891"/>
<g>
	<g>
		<path fill="#2B2926" d="M16.161,4.807c-3.063,0-5.559,2.491-5.559,5.559c0,3.066,2.493,5.562,5.559,5.562
			c3.067,0,5.562-2.496,5.562-5.562C21.726,7.298,19.229,4.807,16.161,4.807z"/>
		<path fill="#2B2926" d="M19.888,26H6.542c0.023-5,4.372-8.635,9.168-8.635c0.521,0,1.052,0.083,1.574,0.17
			c-1.639,2.178-1.467,5.226,0.515,7.203C18.407,25.348,19.127,26,19.888,26z"/>
	</g>
	<path fill="#2B2926" d="M26.645,16.483c-2.181-2.178-5.714-2.178-7.895,0c-2.18,2.181-2.18,5.717,0,7.896
		c2.18,2.179,5.714,2.179,7.895,0C28.824,22.2,28.824,18.664,26.645,16.483z M25.973,21.216c-0.778,0.003-1.556,0-2.333,0.003
		c-0.152,0-0.154,0-0.154,0.151c0,0.766,0,1.533,0.002,2.3c0,0.229-0.069,0.435-0.232,0.61c-0.234,0.208-0.506,0.288-0.811,0.177
		c-0.295-0.107-0.47-0.32-0.513-0.635c-0.008-0.066-0.008-0.134-0.008-0.199c-0.004-0.747-0.004-1.496-0.004-2.243
		c0-0.161,0-0.161-0.163-0.161c-0.75,0-1.498-0.003-2.245,0c-0.202,0-0.395-0.035-0.564-0.16c-0.253-0.187-0.371-0.522-0.282-0.835
		c0.082-0.304,0.354-0.547,0.666-0.561c0.388-0.018,0.773-0.009,1.161-0.01c0.427-0.002,0.853,0,1.284,0
		c0.144,0,0.144,0,0.144-0.147c0.004-0.774,0-1.549,0.004-2.322c0-0.406,0.23-0.708,0.599-0.795c0.444-0.104,0.867,0.172,0.947,0.62
		c0.014,0.076,0.016,0.155,0.016,0.231c0.002,0.749,0,1.494,0,2.243c0,0.166,0,0.17,0.161,0.17c0.784,0,1.562-0.008,2.345,0.001
		c0.6,0.005,0.972,0.633,0.688,1.148C26.526,21.078,26.285,21.215,25.973,21.216z"/>
</g>
</svg>
