<?xml version="1.0" encoding="UTF-8" standalone="no"?>
<svg width="23px" height="22px" viewBox="0 0 23 22" version="1.1" xmlns="http://www.w3.org/2000/svg" xmlns:xlink="http://www.w3.org/1999/xlink">
    <!-- Generator: Sketch 48.2 (47327) - http://www.bohemiancoding.com/sketch -->
    <title>register_button</title>
    <desc>Created with Sketch.</desc>
    <defs></defs>
    <g id="Page-1" stroke="none" stroke-width="1" fill="none" fill-rule="evenodd">
        <g id="register_button" fill="#2B2926" fill-rule="nonzero">
            <g id="Group">
                <path d="M10.161,0.807 C7.09221987,0.810306878 4.60530688,3.29721987 4.602,6.366 C4.6047537,9.43549549 7.09150644,11.9235902 10.161,11.928 C13.2312089,11.9241433 15.7191433,9.43620886 15.723,6.366 C15.726,3.298 13.229,0.807 10.161,0.807 Z M13.888,22 L0.542,22 C0.565,17 4.914,13.365 9.71,13.365 C10.231,13.365 10.762,13.448 11.284,13.535 C9.62302262,15.7248118 9.84337627,18.8067679 11.799,20.738 C12.407,21.348 13.127,22 13.888,22 Z" id="Shape"></path>
                <path d="M20.645,12.483 C18.4640811,10.3047273 14.9309189,10.3047273 12.75,12.483 C10.6407331,14.674956 10.6740417,18.1519502 12.8249143,20.3030953 C14.9757869,22.4542403 18.4527769,22.4879893 20.645,20.379 C22.8239386,18.1979663 22.8239386,14.6640337 20.645,12.483 Z M19.973,17.216 C19.195,17.219 18.417,17.216 17.64,17.219 C17.488,17.219 17.486,17.219 17.486,17.37 C17.486,18.136 17.486,18.903 17.488,19.67 C17.4938192,19.895918 17.4104781,20.1150476 17.256,20.28 C17.022,20.488 16.75,20.568 16.445,20.457 C16.1623123,20.3670969 15.9604826,20.1172687 15.932,19.822 C15.924,19.756 15.924,19.688 15.924,19.623 C15.92,18.876 15.92,18.127 15.92,17.38 C15.92,17.219 15.92,17.219 15.757,17.219 C15.007,17.219 14.259,17.216 13.512,17.219 C13.31,17.219 13.117,17.184 12.948,17.059 C12.6904532,16.8657043 12.5783832,16.5338659 12.666,16.224 C12.748,15.92 13.02,15.677 13.332,15.663 C13.72,15.645 14.105,15.654 14.493,15.653 C14.92,15.651 15.346,15.653 15.777,15.653 C15.921,15.653 15.921,15.653 15.921,15.506 C15.925,14.732 15.921,13.957 15.925,13.184 C15.925,12.778 16.155,12.476 16.524,12.389 C16.7325122,12.3366456 16.953417,12.3738462 17.1332821,12.4916038 C17.3131473,12.6093613 17.4355922,12.7969514 17.471,13.009 C17.485,13.085 17.487,13.164 17.487,13.24 C17.489,13.989 17.487,14.734 17.487,15.483 C17.487,15.649 17.487,15.653 17.648,15.653 C18.432,15.653 19.21,15.645 19.993,15.654 C20.593,15.659 20.965,16.287 20.681,16.802 C20.5447943,17.0651856 20.2691609,17.226361 19.973,17.216 Z" id="Shape"></path>
            </g>
        </g>
    </g>
</svg>