<?xml version="1.0" encoding="utf-8"?>
<!-- Generator: Adobe Illustrator 16.0.0, SVG Export Plug-In . SVG Version: 6.00 Build 0)  -->
<!DOCTYPE svg PUBLIC "-//W3C//DTD SVG 1.1//EN" "http://www.w3.org/Graphics/SVG/1.1/DTD/svg11.dtd">
<svg version="1.1" id="Layer_1" xmlns="http://www.w3.org/2000/svg" xmlns:xlink="http://www.w3.org/1999/xlink" x="0px" y="0px"
	 width="20px" height="20px" viewBox="0 0 20 20" enable-background="new 0 0 20 20" xml:space="preserve">
<g>
	<circle fill="none" stroke="#FFA300" stroke-miterlimit="10" cx="14.723" cy="8.326" r="4.758"/>
	<path fill="#FFA300" d="M15.943,7.814c-0.244-0.129-0.498-0.245-0.756-0.345l-0.102-0.041c-0.156-0.06-0.303-0.143-0.438-0.245
		c-0.094-0.065-0.145-0.175-0.135-0.289c0.021-0.115,0.102-0.211,0.211-0.251c0.08-0.031,0.164-0.048,0.248-0.049
		c0.352-0.021,0.699,0.048,1.014,0.201c0.324,0.151,0.391-0.08,0.424-0.18c0.043-0.133,0.08-0.267,0.119-0.401l0.045-0.159
		c0.055-0.156-0.027-0.326-0.186-0.382c-0.221-0.098-0.455-0.168-0.693-0.207c-0.219-0.035-0.219-0.035-0.219-0.252
		c0-0.454-0.033-0.534-0.484-0.534h-0.24c-0.258,0.007-0.334,0.084-0.342,0.345c0,0.061,0,0.12,0,0.18v0.097
		c0,0.193,0,0.193-0.193,0.263c-0.701,0.255-1.078,0.734-1.121,1.426c-0.035,0.591,0.232,1.051,0.824,1.403
		c0.217,0.123,0.445,0.228,0.678,0.316c0.102,0.041,0.201,0.08,0.305,0.124c0.115,0.048,0.225,0.112,0.324,0.19
		c0.174,0.118,0.219,0.354,0.102,0.527c-0.045,0.067-0.113,0.119-0.191,0.145c-0.178,0.076-0.375,0.101-0.564,0.074
		c-0.316-0.036-0.623-0.128-0.908-0.272c-0.059-0.036-0.127-0.058-0.195-0.063c-0.15,0-0.207,0.16-0.232,0.247
		c-0.053,0.164-0.102,0.331-0.145,0.497c-0.076,0.272-0.027,0.374,0.227,0.497c0.279,0.127,0.574,0.214,0.881,0.254
		c0.049,0.006,0.096,0.014,0.143,0.03c0.01,0.05,0.014,0.101,0.012,0.151v0.324c-0.01,0.166,0.117,0.309,0.283,0.319
		c0.006,0.001,0.014,0.001,0.02,0.001h0.225h0.26c0.156,0.01,0.291-0.107,0.303-0.266c0.002-0.014,0.002-0.024,0-0.037
		c0-0.051,0-0.1,0-0.151c0-0.101,0-0.202,0-0.303s0.023-0.134,0.127-0.162c0.352-0.093,0.662-0.292,0.891-0.572
		c0.301-0.36,0.424-0.837,0.336-1.297C16.695,8.475,16.385,8.052,15.943,7.814z"/>
</g>
<g>
	<circle fill="none" stroke="#FFA300" stroke-miterlimit="10" cx="6.172" cy="4.12" r="3.315"/>
	<path fill="#FFA300" d="M7.021,3.764c-0.169-0.09-0.346-0.17-0.526-0.24l-0.07-0.029c-0.108-0.042-0.211-0.1-0.304-0.171
		c-0.065-0.045-0.101-0.122-0.096-0.2c0.016-0.081,0.072-0.147,0.149-0.175c0.055-0.022,0.114-0.034,0.173-0.035
		c0.243-0.015,0.486,0.034,0.706,0.14c0.226,0.105,0.271-0.057,0.294-0.126c0.031-0.093,0.057-0.186,0.083-0.28l0.033-0.11
		C7.5,2.429,7.443,2.311,7.335,2.272C7.179,2.203,7.017,2.154,6.849,2.128C6.698,2.103,6.698,2.103,6.698,1.951
		c0-0.315-0.024-0.372-0.338-0.372H6.193C6.013,1.585,5.96,1.639,5.954,1.82c0,0.042,0,0.083,0,0.125v0.068
		c0,0.134,0,0.134-0.135,0.183C5.331,2.374,5.068,2.708,5.038,3.19C5.013,3.602,5.201,3.923,5.612,4.168
		c0.152,0.085,0.31,0.159,0.473,0.22c0.069,0.028,0.141,0.056,0.211,0.085c0.081,0.034,0.157,0.079,0.227,0.133
		c0.12,0.083,0.152,0.247,0.07,0.367C6.56,5.021,6.514,5.056,6.46,5.075c-0.125,0.052-0.262,0.07-0.395,0.052
		c-0.221-0.025-0.434-0.089-0.632-0.19C5.392,4.911,5.345,4.896,5.296,4.893c-0.105,0-0.144,0.112-0.163,0.172
		c-0.035,0.114-0.068,0.23-0.1,0.346c-0.052,0.19-0.02,0.26,0.158,0.346c0.195,0.089,0.402,0.148,0.614,0.177
		c0.034,0.004,0.067,0.011,0.099,0.021C5.91,5.99,5.914,6.024,5.912,6.06v0.227C5.905,6.403,5.994,6.503,6.11,6.51
		c0.004,0,0.009,0,0.013,0h0.156h0.182c0.108,0.008,0.202-0.075,0.21-0.184c0-0.008,0-0.018,0-0.026c0-0.035,0-0.069,0-0.105
		c0-0.071,0-0.141,0-0.21c0-0.07,0.016-0.094,0.089-0.114c0.243-0.063,0.46-0.204,0.62-0.398C7.589,5.222,7.675,4.89,7.614,4.569
		C7.546,4.224,7.329,3.93,7.021,3.764z"/>
</g>
<g>
	<g>
		<path fill="#FFA300" d="M0.761,13.166h2.39c0.153,0,0.277,0.125,0.277,0.277v5.851c0,0.151-0.125,0.276-0.277,0.276h-2.39
			c-0.152,0-0.277-0.125-0.277-0.276v-5.851C0.484,13.291,0.609,13.166,0.761,13.166z"/>
		<path fill="#FFA300" d="M3.705,13.593c7.866-3.028,7.096,0.286,7.016,0.575c-0.016,0.079-0.068,0.15-0.145,0.189l0,0l-3.442,1.721
			c3.12,0.85,6.229-0.432,8.274-1.276c1.109-0.458,1.93-0.798,2.393-0.624c0.475,0.176,0.555,0.703,0.143,1.822
			c-0.018,0.051-0.049,0.104-0.098,0.138l-0.17-0.219l0.166,0.219c-5.148,3.953-7.477,3.616-12.461,2.899
			c-0.537-0.076-1.102-0.159-1.683-0.235v-5.205L3.705,13.593z"/>
	</g>
</g>
</svg>
