<?xml version="1.0" encoding="utf-8"?>
<!-- Generator: Adobe Illustrator 16.0.0, SVG Export Plug-In . SVG Version: 6.00 Build 0)  -->
<!DOCTYPE svg PUBLIC "-//W3C//DTD SVG 1.1//EN" "http://www.w3.org/Graphics/SVG/1.1/DTD/svg11.dtd">
<svg version="1.1" id="Layer_1" xmlns="http://www.w3.org/2000/svg" xmlns:xlink="http://www.w3.org/1999/xlink" x="0px" y="0px"
	 width="20px" height="20px" viewBox="0 0 20 20" enable-background="new 0 0 20 20" xml:space="preserve">
<g>
	<g>
		<path fill="#FFA300" d="M3.868,16.182c-0.704,0.382-1.602,0.128-2.001-0.564l-0.755-1.311c-0.4-0.693-0.173-1.595,0.516-2.017
			l0.475-0.291c0.299-0.184,0.541-0.616,0.541-0.966L2.642,8.968c0-0.353-0.241-0.784-0.54-0.967L1.626,7.708
			C0.94,7.289,0.71,6.385,1.111,5.692l0.756-1.309c0.4-0.694,1.296-0.947,2.005-0.563l0.489,0.268
			c0.308,0.167,0.803,0.16,1.108-0.016l1.787-1.03c0.304-0.175,0.557-0.602,0.566-0.95l0.015-0.559
			c0.021-0.804,0.689-1.455,1.49-1.455l1.512-0.002c0.801,0,1.469,0.647,1.488,1.45l0.017,0.562c0.009,0.35,0.262,0.777,0.566,0.952
			l1.788,1.032c0.303,0.176,0.799,0.184,1.107,0.016l0.492-0.269c0.705-0.382,1.602-0.128,2.002,0.565l0.755,1.31
			c0.4,0.693,0.172,1.595-0.518,2.017l-0.474,0.293c-0.3,0.184-0.542,0.615-0.542,0.965l0.002,2.064
			c0.001,0.351,0.24,0.783,0.541,0.966l0.476,0.291c0.687,0.42,0.914,1.326,0.515,2.017l-0.755,1.311
			c-0.401,0.695-1.295,0.947-2.005,0.563l-0.489-0.268c-0.309-0.167-0.805-0.16-1.106,0.015l-1.789,1.032
			c-0.305,0.174-0.558,0.6-0.566,0.95l-0.017,0.558c-0.021,0.804-0.689,1.456-1.488,1.456l-1.511,0.001
			c-0.801,0-1.469-0.646-1.49-1.451l-0.016-0.562c-0.009-0.351-0.262-0.776-0.566-0.952L5.47,15.928
			c-0.304-0.175-0.8-0.182-1.108-0.015L3.868,16.182z M7.904,13.772c2.084,1.202,4.749,0.489,5.952-1.594
			c1.202-2.085,0.488-4.748-1.596-5.952C10.178,5.024,7.513,5.738,6.31,7.821C5.108,9.906,5.822,12.57,7.904,13.772z"/>
	</g>
</g>
</svg>
