<?xml version="1.0" encoding="utf-8"?>
<!-- Generator: Adobe Illustrator 16.0.0, SVG Export Plug-In . SVG Version: 6.00 Build 0)  -->
<!DOCTYPE svg PUBLIC "-//W3C//DTD SVG 1.1//EN" "http://www.w3.org/Graphics/SVG/1.1/DTD/svg11.dtd">
<svg version="1.1" id="Layer_1" xmlns="http://www.w3.org/2000/svg" xmlns:xlink="http://www.w3.org/1999/xlink" x="0px" y="0px"
	 width="20px" height="20px" viewBox="0 0 20 20" enable-background="new 0 0 20 20" xml:space="preserve">
<g>
	<path fill="#FFA300" d="M3.131,7.125l0.258,2.386c0.064,0.387,0.064,0.838,0.193,1.097c0.516,1.033,1.548,0.387,2.257,0.129
		l1.226-0.516c0.129,0.193,0.258,0.322,0.581,0.322h1.548v7.675c0,0.322,0.258,0.58,0.452,0.645c0.258,0.064,0.709,0,1.032,0
		c0.258,1.227,1.936,1.227,2.193,0h2.516c0.322,1.42,2.129,0.969,2.192,0c0.45,0,1.354,0.13,1.354-0.645
		c0-0.517-0.388-0.71-0.904-0.71h-7.48V10.09c0-1.161-0.838-0.968-1.677-0.968c0.065-0.129,0.065-0.064,0.065-0.387
		c0-0.516-0.517-0.967-1.032-0.967c-0.388,0-2.258,0.903-2.516,0.903L5.195,7.06C5.13,6.608,4.744,6.157,4.292,6.157H4.034
		C3.583,6.157,3.131,6.673,3.131,7.125z"/>
	<path fill="#FFA300" d="M4.615,14.93l0.322,0.258c0.193,0.129,0.258,0.129,0.451,0.258L5.13,18.089
		c-0.064,0.451-0.064,0.902,0.129,1.226c0.58,0.773,1.612,0.646,2.064-0.063c0.193-0.323,0.193-1.032,0.258-1.419
		c0-0.968,0.193-2.258,0.193-3.098c0-0.45-0.258-0.772-0.58-0.967c-0.452-0.322-0.968-0.58-1.419-0.902
		c-0.193-0.064-0.709-0.451-0.839-0.451c0-0.322,0.193-0.451,0.193-0.709c-0.773,0.387-1.806-0.13-2.193-0.904
		C2.743,10.35,2.614,7.9,2.485,7.384c0-0.064,0-0.129,0-0.193C2.293,7.898,1.906,8.672,1.712,9.382
		c-1.097,3.16-0.774,2.451,0.322,5.611c0.258,0.772-1.032,1.999-1.548,2.646c-0.387,0.516-0.452,0.516-0.452,1.159
		c0,0.517,0.646,1.032,1.226,1.032c0.645,0,0.903-0.451,1.226-0.839c0.258-0.388,2.064-2.709,2.193-3.097
		C4.744,15.509,4.679,15.314,4.615,14.93z"/>
	<path fill="#FFA300" d="M11.902,13.445v2.128c0,0.709,0.451,1.097,1.16,1.097h5.74c0.646,0,1.161-0.322,1.161-0.968v-2.451
		c0-0.451-0.387-0.901-0.839-0.901h-6.32C12.225,12.35,11.902,12.864,11.902,13.445z"/>
	<path fill="#FFA300" d="M11.193,8.285c0,0.709-0.129,2.128,0.258,2.515c0.129,0.194,0.387,0.388,0.71,0.388h3.418
		c0.517,0,0.901-0.451,0.901-1.031v-2c0-0.709-0.451-1.032-1.096-1.032h-2.967C11.645,7.125,11.193,7.447,11.193,8.285z"/>
	<path fill="#FFA300" d="M3.969,3.19c0.71,1.419,2.58,1.548,3.547,0.323c1.032-1.29,0.065-3.29-1.677-3.354
		C4.292,0.159,3.261,1.836,3.969,3.19z"/>
	<path fill="#FFA300" d="M3.002,5.963c0.58-0.322,0.451-0.387,1.29-0.452c0.774,0,1.419,0.709,1.548,1.419
		c0,0.258,0.065,0.645,0.065,0.903C6.163,7.705,6.421,7.64,6.679,7.511c0.129-0.709,0-1.419-0.516-1.87
		C4.873,4.287,3.196,5.383,3.002,5.963z"/>
</g>
</svg>
